<?xml version="1.0" encoding="UTF-8" standalone="no"?>
<svg
   width="20"
   height="20"
   viewBox="0 0 20 20"
   fill="none"
   version="1.1"
   id="svg1"
   sodipodi:docname="close.svg"
   inkscape:version="1.3.2 (091e20ef0f, 2023-11-25)"
   xmlns:inkscape="http://www.inkscape.org/namespaces/inkscape"
   xmlns:sodipodi="http://sodipodi.sourceforge.net/DTD/sodipodi-0.dtd"
   xmlns="http://www.w3.org/2000/svg"
   xmlns:svg="http://www.w3.org/2000/svg">
  <defs
     id="defs1" />
  <sodipodi:namedview
     id="namedview1"
     pagecolor="#505050"
     bordercolor="#eeeeee"
     borderopacity="1"
     inkscape:showpageshadow="0"
     inkscape:pageopacity="0"
     inkscape:pagecheckerboard="0"
     inkscape:deskcolor="#505050"
     inkscape:zoom="40.35"
     inkscape:cx="10"
     inkscape:cy="10"
     inkscape:window-width="1920"
     inkscape:window-height="1012"
     inkscape:window-x="0"
     inkscape:window-y="40"
     inkscape:window-maximized="1"
     inkscape:current-layer="svg1" />
  <path
     style="fill:#000000"
     d="m 13.630731,3.3952912 c 0.341309,0.039693 0.711092,0.1579411 1.016109,0.3221809 0.05245,0.028243 0.09698,0.069577 0.148699,0.099133 0.26107,0.1491827 0.543695,0.2486758 0.793061,0.4213135 0.05305,0.036726 0.09398,0.08972 0.148699,0.1239158 0.07832,0.048951 0.169509,0.074964 0.247831,0.1239157 0.197169,0.1232307 0.399752,0.3135057 0.446097,0.5452292 0.01529,0.076464 0.05,0.085204 0.02478,0.1734821 -0.04462,0.1561759 -0.200178,0.1543439 -0.322181,0.1982651 -0.1429,0.051444 -0.281439,0.1143045 -0.421314,0.1734821 -0.258484,0.1093588 -0.311607,0.1416445 -0.594795,0.2973977 -0.08441,0.046428 -0.160127,0.1088333 -0.247832,0.1486989 -0.125548,0.057067 -0.275502,0.08598 -0.371747,0.1982652 -0.0627,0.073147 -0.08769,0.1732688 -0.148699,0.2478315 -0.301103,0.3680149 -0.669492,0.6694678 -1.016109,0.9913259 -0.165245,0.1534419 -0.295341,0.3298322 -0.446096,0.4956629 -0.03366,0.037022 -0.250402,0.2463629 -0.272615,0.2726147 -0.256338,0.3588727 0.01677,-0.00337 -0.272615,0.3221809 -0.15214,0.1711574 -0.294313,0.3496896 -0.446096,0.5204461 -0.07882,0.088671 -0.352963,0.2734022 -0.322181,0.3965303 0.05642,0.2256861 0.401477,0.5159314 0.570012,0.6691443 0.09767,0.08879 0.179229,0.208159 0.297398,0.272615 0.05523,0.03013 0.117969,0.04474 0.173482,0.07435 0.06877,0.03667 0.129499,0.08724 0.198265,0.123916 0.14358,0.07658 0.299037,0.128605 0.446097,0.198265 0.306981,0.145412 0.592293,0.3194 0.86741,0.520446 0.0709,0.05181 0.12934,0.119068 0.198265,0.173482 0.181735,0.143475 0.340315,0.223922 0.495663,0.396531 0.256425,0.284916 0.452515,0.619233 0.693928,0.916976 0.165921,0.204635 0.348996,0.394771 0.520446,0.594796 0.224376,0.261771 0.242115,0.266898 0.520447,0.545229 0.0867,0.0867 0.413615,0.349123 0.371747,0.495663 -0.0437,0.152936 -0.301799,0.280353 -0.421314,0.371747 -0.26302,0.201134 -0.235475,0.183838 -0.520446,0.421314 -0.07236,0.0603 -0.156446,0.106879 -0.223048,0.173482 -0.02106,0.02106 -0.0285,0.05329 -0.04957,0.07435 -0.194947,0.194948 0.0543,-0.119688 -0.148698,0.123916 -0.01907,0.02288 -0.02478,0.05783 -0.04957,0.07435 -0.02834,0.01889 -0.06724,0.01282 -0.09913,0.02478 -0.345464,0.129549 0.183877,-0.03651 -0.223049,0.09913 -0.03231,0.01077 -0.06867,0.0096 -0.09913,0.02478 -0.161381,0.08069 0.0494,0.02484 -0.09913,0.07435 -0.03231,0.01077 -0.06783,0.01136 -0.09913,0.02478 -0.08629,0.03698 -0.122612,0.12809 -0.198266,0.173482 -0.0224,0.01344 -0.05261,0.01029 -0.07435,0.02478 -0.02991,0.01994 0.03557,0.02478 -0.04957,0.02478 -0.346609,0 -0.923184,-0.749701 -1.164808,-0.991326 -0.275839,-0.275839 -0.64506,-0.454823 -0.966543,-0.669145 -0.177031,-0.11802 -0.302513,-0.292941 -0.446097,-0.446096 -0.05593,-0.05966 -0.12026,-0.11139 -0.173482,-0.173482 -0.04625,-0.05396 -0.08001,-0.117603 -0.123915,-0.173482 -0.09411,-0.119777 -0.206002,-0.225104 -0.297398,-0.346965 -0.0289,-0.03854 -0.04957,-0.08261 -0.07435,-0.123915 -0.03304,-0.04957 -0.06281,-0.101482 -0.09913,-0.148699 -0.08577,-0.111507 -0.185699,-0.211561 -0.272615,-0.322181 -0.157158,-0.200019 -0.271573,-0.43342 -0.446096,-0.619579 -0.06006,-0.06406 -0.132418,-0.115381 -0.198266,-0.173482 C 9.9934787,11.691163 9.6432946,11.459842 9.2936803,11.226766 9.2738683,11.213558 9.136093,11.136522 9.0954151,11.1772 c -0.013062,0.01306 -0.01419,0.03443 -0.024783,0.04957 -0.047374,0.06768 -0.09833,0.132786 -0.1486989,0.198265 -0.1734366,0.225468 -0.3024248,0.474469 -0.4460967,0.718711 -0.1255767,0.213481 -0.3164681,0.442006 -0.4708798,0.619579 -0.2409029,0.277038 -0.098756,0.07397 -0.346964,0.322181 -0.5362595,0.536259 0.5088556,-0.392753 -0.495663,0.520446 -0.061127,0.05557 -0.1337572,0.09709 -0.1982652,0.148699 -0.2228281,0.178262 -0.4256208,0.385918 -0.6195787,0.594795 -0.2280939,0.24564 -0.4378876,0.505493 -0.6443618,0.768278 -0.3858329,0.49106 0.1560287,-0.244602 -0.3965303,0.446097 -0.023079,0.02885 -0.0274,0.06958 -0.049566,0.09913 -0.028039,0.03739 -0.068086,0.06421 -0.099133,0.09913 -0.035143,0.03954 -0.058971,0.08949 -0.099133,0.123916 -0.031479,0.02698 -0.5070541,0.07435 -0.5700124,0.07435 -0.1818724,0 -0.260988,0.01747 -0.4213135,-0.09913 -0.179203,-0.130332 -0.259512,-0.303416 -0.39653,-0.470882 -0.1172775,-0.14334 -0.2855066,-0.248499 -0.3965303,-0.396531 -0.03325,-0.04433 -0.047813,-0.100049 -0.074349,-0.148699 -0.023066,-0.04229 -0.054786,-0.0799 -0.074349,-0.123915 -0.013834,-0.03113 -0.00788,-0.06956 -0.024783,-0.09913 -0.017389,-0.03043 -0.05154,-0.04774 -0.074349,-0.07435 -0.026881,-0.03136 -0.053856,-0.06327 -0.074349,-0.09913 -0.016899,-0.02957 -6.982e-4,-0.07505 -0.024783,-0.09913 -0.013817,-0.01382 -0.1928646,-0.03773 -0.1239157,-0.123915 0.058386,-0.07298 0.1357416,-0.128795 0.1982651,-0.198266 0.2557403,-0.284155 0.4993875,-0.57259 0.8178439,-0.79306 0.1491187,-0.103236 0.3175359,-0.175766 0.4708798,-0.272615 0.120168,-0.0759 0.2276373,-0.17062 0.3469641,-0.247831 0.080884,-0.05234 0.165221,-0.09913 0.2478314,-0.148699 0.1156547,-0.06609 0.2349146,-0.126234 0.3469641,-0.198265 0.2795198,-0.179692 0.5425075,-0.383975 0.8178439,-0.570013 0.4237554,-0.286321 0.5847544,-0.411347 1.0904585,-0.619578 0.061586,-0.02536 0.1327367,-0.01287 0.1982651,-0.02478 0.029825,-0.0054 0.1801301,-0.09671 0.1982652,-0.123915 0.00916,-0.01375 -0.00614,-0.03423 0,-0.04957 0.01789,-0.04472 0.04763,-0.08384 0.074349,-0.123915 0.010247,-0.01537 0.041305,-0.04131 0.024783,-0.04957 -0.014778,-0.0074 -0.033741,0.0047 -0.049566,0 -0.067606,-0.02028 -0.1336005,-0.04606 -0.1982652,-0.07435 C 7.1480282,10.627262 6.9227334,10.499781 6.6914498,10.384139 6.497429,10.287128 6.2792953,10.219816 6.1214374,10.061958 5.7179834,9.6585038 5.3606762,9.213906 5.0309789,8.7484511 4.8867947,8.5448968 4.6452656,8.1469855 4.5105328,7.9801735 4.4553547,7.9118577 4.370095,7.8727798 4.3122677,7.8066914 4.2534257,7.7394435 4.2162908,7.6557891 4.1635688,7.5836431 4.0592573,7.4409011 3.940801,7.3085254 3.8413879,7.1623296 3.7481443,7.0252067 3.7221721,6.8460237 3.6183395,6.716233 3.5359623,6.6132614 3.4047541,6.5310363 3.3705081,6.394052 c -0.010018,-0.040072 0.00679,-0.083172 0,-0.1239157 -0.022535,-0.1352088 -0.022964,-0.184399 0,-0.3221809 0.00951,-0.057041 -0.00717,-0.1161012 0,-0.173482 0.00845,-0.067596 0.041117,-0.1306689 0.049566,-0.1982652 0.015947,-0.1275744 -0.025126,-0.2641253 0.099133,-0.3469641 0.1239393,-0.082626 0.6666925,-0.074349 0.8178439,-0.074349 0.1529563,0 0.3185531,0.015233 0.4708798,0 0.045466,-0.00455 0.1210316,-0.042267 0.173482,-0.024783 0.06416,0.021387 0.1144352,0.069609 0.1734821,0.099133 0.039791,0.019895 0.084861,0.028264 0.1239157,0.049566 0.2059808,0.1123532 0.3947848,0.324973 0.5204461,0.5204461 0.052419,0.081541 0.1173477,0.2412634 0.1982652,0.3221809 0.037403,0.037404 0.082611,0.066088 0.1239157,0.099133 0.033044,0.049566 0.059061,0.1046197 0.099133,0.1486989 0.2505631,0.2756194 0.058196,-0.023076 0.2478315,0.2478315 0.4133192,0.590456 0.8084169,1.2385794 1.3630731,1.7100371 0.1967365,0.1672261 0.4766347,0.286445 0.7187113,0.3469641 0.093712,0.023428 0.204458,0.1827772 0.3221809,0.1239157 0.036945,-0.018472 0.045142,-0.069925 0.074349,-0.099132 C 9.1872709,8.4583301 9.444692,8.2429539 9.6654275,7.9801735 9.9555631,7.634774 9.9999736,7.5093327 10.285006,7.0879802 c 0.337857,-0.4994406 0.05183,-0.059045 0.396531,-0.495663 0.06248,-0.079147 0.112978,-0.1671603 0.173482,-0.2478315 0.137808,-0.1837447 0.286221,-0.3594779 0.421313,-0.5452292 0.06335,-0.08711 0.107354,-0.1875928 0.173482,-0.2726146 0.150795,-0.1938796 0.302529,-0.3934808 0.495663,-0.5452293 0.23089,-0.1814134 0.158353,-0.08322 0.421314,-0.1982651 0.15185,-0.066435 0.19754,-0.1191811 0.32218,-0.2230484 0.09913,-0.082611 0.203258,-0.1595745 0.297398,-0.2478314 0.09197,-0.086221 0.159565,-0.2091311 0.247832,-0.2973978 0.0507,-0.050701 0.115168,-0.060257 0.173482,-0.099133 0.09996,-0.066641 0.186031,-0.1364651 0.272614,-0.2230483 0.03162,-0.031624 0.211447,-0.2346502 0.198266,-0.2478315 -0.02115,-0.021151 -0.121657,0.010817 -0.148699,0 -0.0343,-0.013721 -0.06609,-0.033044 -0.09913,-0.049566 z"
     id="path1" />
</svg>
