<?xml version="1.0" encoding="UTF-8" standalone="no"?>
<svg
   width="16"
   height="16"
   viewBox="0 0 16 16"
   fill="none"
   version="1.1"
   id="svg1"
   sodipodi:docname="copyright.svg"
   inkscape:version="1.3.2 (091e20ef0f, 2023-11-25)"
   xmlns:inkscape="http://www.inkscape.org/namespaces/inkscape"
   xmlns:sodipodi="http://sodipodi.sourceforge.net/DTD/sodipodi-0.dtd"
   xmlns="http://www.w3.org/2000/svg"
   xmlns:svg="http://www.w3.org/2000/svg">
  <defs
     id="defs1" />
  <sodipodi:namedview
     id="namedview1"
     pagecolor="#505050"
     bordercolor="#eeeeee"
     borderopacity="1"
     inkscape:showpageshadow="0"
     inkscape:pageopacity="0"
     inkscape:pagecheckerboard="0"
     inkscape:deskcolor="#505050"
     inkscape:zoom="50.4375"
     inkscape:cx="8"
     inkscape:cy="8"
     inkscape:window-width="1920"
     inkscape:window-height="1012"
     inkscape:window-x="0"
     inkscape:window-y="40"
     inkscape:window-maximized="1"
     inkscape:current-layer="svg1" />
  <path
     style="fill:#000000"
     d="m 0.61462206,3.0136307 c 0.0215134,-0.094281 0.11003667,-0.1913244 0.13878562,-0.2775712 0.00627,-0.018809 -0.003888,-0.040038 0,-0.05948 0.0133442,-0.066721 0.0583073,-0.1240049 0.0991326,-0.1784386 0.0280389,-0.037385 0.0675549,-0.064684 0.0991326,-0.099133 0.0411722,-0.044915 0.0815514,-0.09069 0.11895912,-0.1387857 0.00907,-0.011665 0.00938,-0.029203 0.019826,-0.039653 0.01045,-0.01045 0.030786,-0.008 0.039653,-0.019826 0.012539,-0.016719 0.00645,-0.043424 0.019826,-0.05948 0.021154,-0.025385 0.054609,-0.037526 0.079306,-0.05948 C 1.264171,2.0507362 1.29099,2.0106892 1.328376,1.9826502 1.3958831,1.932022 1.5384416,1.8548429 1.605948,1.8042131 1.7319277,1.7097283 1.8797079,1.5716322 2.0223048,1.5068154 2.1541631,1.4468798 2.1243077,1.4813146 2.260223,1.4473358 2.3352679,1.4285746 2.4029412,1.3854236 2.4783147,1.3680297 2.5302324,1.3560487 2.5858098,1.3632377 2.6369269,1.3482032 2.6993715,1.3298372 2.755886,1.2953325 2.8153656,1.2688971 2.8880628,1.2556795 2.9615775,1.2463583 3.0334572,1.2292441 3.2794715,1.1706693 3.5194834,1.0840264 3.7670384,1.0309789 4.1555671,0.94772279 4.5412298,0.87666633 4.936803,0.83271375 c 0.2053852,-0.0228206 0.4092502,-0.057688 0.614622,-0.0793061 0.204172,-0.0214918 0.4104905,-0.0177818 0.6146221,-0.039653 0.054188,-0.005806 0.1044734,-0.0334063 0.1586121,-0.039653 0.1183573,-0.0136566 0.2380376,-0.011338 0.3568774,-0.0198265 0.4424013,-0.0316001 0.884583,-0.0480265 1.3283767,-0.039653 0.3714775,-0.0239886 0.7400496,0.0312386 1.110285,0.039653 1.5134437,0 -0.086299,-0.0149584 0.7137546,0.0198265 0.079231,0.003445 0.1588647,-0.006324 0.2379181,0 0.196492,0.0157194 0.398646,0.0531527 0.594796,0.0793061 0.0334,0.004453 0.256357,0.0308587 0.297397,0.039653 0.173616,0.0372033 0.343049,0.0977282 0.51549,0.13878562 0.574736,0.13684193 -0.210983,-0.0947233 0.515489,0.13878563 0.03323,0.010681 0.394601,0.1217273 0.45601,0.1387856 0.05251,0.014586 0.107747,0.020089 0.158612,0.039653 0.03597,0.013834 0.06335,0.045168 0.09913,0.05948 0.03129,0.012515 0.06784,0.00731 0.09913,0.019826 0.03578,0.014312 0.06466,0.042246 0.09913,0.05948 0.08233,0.041166 0.175412,0.057966 0.257745,0.099133 0.04263,0.021313 0.07809,0.054787 0.118959,0.079306 0.208248,0.124949 0.411688,0.2535946 0.594796,0.4163569 0.412441,0.3666145 0.574342,0.8210263 0.753407,1.3283767 0.0379,0.1073929 0.09002,0.2270982 0.118959,0.3370508 0.03431,0.1303562 0.045,0.2661741 0.07931,0.3965304 0.08017,0.3046304 0.176127,0.6030591 0.237919,0.9120198 0.08717,0.4358268 0.200164,0.8670972 0.257744,1.3085502 0.0095,0.072933 0.03264,0.4301938 0.03965,0.4956629 0.07683,0.7170345 0.108776,1.4390989 0.07931,2.1610905 -0.02152,0.5271788 -0.144137,1.0306738 -0.237918,1.5464682 -0.04977,0.273729 -0.05782,0.557298 -0.09913,0.832714 -0.04223,0.281522 -0.106226,0.558306 -0.178439,0.832714 -0.06229,0.236697 -0.08529,0.479136 -0.158612,0.713755 -0.116259,0.372027 -0.0019,-0.02686 -0.118959,0.277571 -0.01727,0.04491 -0.02238,0.09388 -0.03965,0.138786 -0.125459,0.326193 -0.35609,0.606584 -0.574969,0.872366 -0.190732,0.231603 -0.435769,0.436006 -0.713755,0.555143 -0.03842,0.01647 -0.08101,0.02214 -0.118959,0.03965 -0.04838,0.02233 -0.08793,0.06341 -0.138786,0.07931 -0.05712,0.01785 -0.120563,0.0046 -0.178438,0.01983 -0.06884,0.01811 -0.130437,0.05772 -0.198266,0.07931 -0.102941,0.03275 -0.396117,0.09299 -0.495662,0.118959 -0.202525,0.05283 -0.403457,0.108903 -0.614623,0.118959 -0.246783,0.01175 -0.488038,-0.02738 -0.733581,-0.03965 -0.0528,-0.0026 -0.105741,0 -0.158612,0 -0.132177,-0.0066 -0.264417,-0.01206 -0.39653,-0.01983 -0.178619,-0.01051 -0.3565437,-0.0322 -0.5353162,-0.03965 -0.2891998,-0.01205 -0.5838449,0.02219 -0.8723668,0 -0.093188,-0.0072 -0.1843834,-0.03249 -0.2775712,-0.03965 -0.079072,-0.0061 -0.1587019,0.0038 -0.2379182,0 -0.059778,-0.0028 -0.1187256,-0.01585 -0.1784387,-0.01983 -0.019045,-0.0013 -0.2498445,0.0015 -0.2577447,0 -0.061623,-0.01156 -0.117806,-0.04352 -0.1784387,-0.05948 C 7.6293258,14.897049 7.4580972,14.877869 7.3358136,14.850069 6.9568782,14.763949 7.2797586,14.814439 6.8798037,14.73111 6.7148524,14.69675 6.5505176,14.6586 6.3841408,14.63198 6.3055598,14.61941 6.2251351,14.62248 6.1462226,14.61215 5.6766369,14.5509 6.1582136,14.59735 5.7496922,14.53284 5.6119846,14.5111 5.4706873,14.51707 5.3333353,14.49319 5.2527973,14.47918 5.1758454,14.44833 5.0954171,14.43371 5.0300701,14.42183 4.9623969,14.42631 4.8971519,14.41388 4.7491089,14.38568 4.6079257,14.32832 4.4609685,14.29492 4.3889165,14.27854 4.3149285,14.27164 4.2428768,14.25527 3.9775115,14.194957 4.0852722,14.20658 3.8463445,14.136307 3.5779337,14.057363 3.2889764,13.995676 3.0334572,13.878563 2.8002948,13.771696 2.3640279,13.54235 2.1610905,13.3829 2.0729004,13.313607 1.9992452,13.227394 1.9231722,13.144981 1.8426087,13.057704 1.7398749,12.936999 1.685254,12.827757 1.667653,12.792557 1.652239,12.652726 1.645601,12.629492 1.630089,12.575202 1.608754,12.522611 1.586121,12.47088 1.562428,12.41673 1.5301,12.366599 1.506815,12.312268 1.479635,12.248848 1.474515,12.177422 1.447335,12.114002 1.437945,12.092102 1.41736,12.076302 1.407682,12.054522 1.36778,11.964742 1.333553,11.871963 1.308549,11.776951 1.271737,11.637067 1.266054,11.500478 1.229243,11.360594 1.213287,11.299964 1.186988,11.24244 1.169763,11.182155 1.151248,11.117355 1.153775,11.046996 1.13011,10.98389 1.12174,10.96158 1.096236,10.94753 1.090457,10.92441 c -0.00801,-0.03206 0.00717,-0.06687 0,-0.09913 C 1.0533891,10.658466 0.99069119,10.454728 0.93184634,10.289963 0.8891645,10.170454 0.8304926,10.054739 0.79306072,9.9330855 0.74080422,9.7632519 0.68890984,9.5754682 0.67410161,9.3977695 c -0.008781,-0.1053762 0.00503,-0.2116025 0,-0.3172243 C 0.669376,8.927916 0.6420679,8.7769219 0.63444857,8.6245353 0.62630901,8.4617441 0.61879575,8.3107003 0.59479554,8.1486989 0.56533926,7.949869 0.52166013,7.753215 0.49566295,7.5539033 0.48537001,7.4749908 0.48612937,7.3948976 0.47583643,7.3159851 0.45573377,7.1618647 0.42184444,7.0515128 0.39653036,6.8996283 0.3820562,6.8127833 0.37446103,6.690149 0.35687732,6.6022305 0.32144524,6.4250701 0.29695754,6.2433721 0.25774473,6.0669145 0.24867748,6.0261119 0.2232761,5.9894306 0.2180917,5.9479554 c -0.004099,-0.032789 0.002992,-0.066224 0,-0.099133 C 0.2025761,5.6781513 0.1900081,5.7761884 0.1784387,5.5910777 0.1516687,5.162757 0.1586122,4.7323417 0.1586122,4.302354 c 0,-0.046262 -0.003296,-0.092641 0,-0.1387856 0.008524,-0.1193332 0.0305403,-0.2384118 0.039653,-0.3568774 0.004055,-0.052715 -0.004055,-0.1058971 0,-0.1586121 0.0131995,-0.1715937 0.0216815,-0.028174 0.0594795,-0.1982652 0.0121884,-0.054848 0.001679,-0.1239967 0.0198265,-0.1784386 0.002956,-0.00887 0.0156467,-0.011467 0.0198265,-0.019827 0.002956,-0.00591 -0.004673,-0.015153 0,-0.019826 0.004673,-0.00467 0.0161606,0.0055 0.0198265,0 0.0799703,-0.1199554 -0.0287435,-0.00794 0.039653,-0.099133 0.0112156,-0.014954 0.0300358,-0.023624 0.039653,-0.039653 0.0107524,-0.017921 0.007287,-0.04276 0.0198265,-0.05948 0.0132959,-0.017728 0.0676303,-0.027977 0.0793061,-0.039653 0.004673,-0.00467 -0.004673,-0.015153 0,-0.019827 0.0295556,-0.029556 0.0815739,0.02096 0.11895911,0.039653 z"
     id="path1" />
  <path
     style="fill:#ffffff"
     d="m 10.765799,3.6480793 c 0.162604,0.4103679 0.270455,0.8367827 0.356878,1.2688972 0.0248,0.1239812 0.06139,0.251324 0.07931,0.3767038 0.0028,0.019627 -0.0039,0.040038 0,0.05948 0.01424,0.071201 0.0983,0.1801109 0.05948,0.2577447 -0.003,0.00591 -0.01391,-0.00296 -0.01983,0 -0.134522,0.067261 -0.271063,0.031003 -0.416357,0.019827 -0.10543,-0.00811 -0.211483,0 -0.317224,0 -0.143109,0 -0.293367,-0.010986 -0.436184,0 C 9.7930528,5.65218 9.5175564,5.708449 9.2391584,5.729865 8.7874989,5.764608 8.3399882,5.789409 7.8909552,5.8686506 7.7061266,5.9012676 7.4948107,5.9515536 7.3159861,6.0074362 c -0.095031,0.029697 -0.127205,0.069208 -0.2180917,0.079306 -0.1293549,0.014373 -0.2695786,0.00157 -0.3965303,0.039653 -0.022824,0.00685 -0.038791,0.027831 -0.05948,0.039653 C 6.4645696,6.2673693 6.301289,6.3867026 6.1660471,6.5427509 6.0633678,6.626981 6.0314652,6.7625471 5.9479554,6.8599752 c -0.039653,0.046262 -0.097613,0.074044 -0.1387856,0.1189591 -0.032203,0.035131 -0.046981,0.083941 -0.079306,0.1189591 -0.047651,0.051622 -0.1141253,0.084413 -0.1586122,0.1387857 -0.017255,0.02109 -0.00876,0.054406 -0.019826,0.079306 -0.015651,0.035215 -0.04631,0.062917 -0.05948,0.099133 -0.040794,0.1121845 -0.079489,0.4152595 -0.05948,0.535316 0.00923,0.055405 0.078983,0.2145665 0.099133,0.2577447 0.043745,0.09374 0.083249,0.190299 0.1387856,0.2775713 0.1155212,0.1815332 0.3167754,0.2983305 0.4758365,0.4361834 0.058861,0.051013 0.189482,0.1924097 0.2577447,0.2379182 0.024592,0.016395 0.054714,0.023259 0.079306,0.039653 0.03521,0.023473 0.061874,0.059244 0.099133,0.079306 0.1423954,0.076675 0.3618175,0.1416492 0.5154894,0.1982652 0.1889092,0.069598 0.378086,0.1528306 0.5749691,0.1982652 0.2981764,0.06881 0.6247465,0.1027959 0.9318463,0.1189591 0.1055953,0.00556 0.2117171,-0.00703 0.3172243,0 0.3803048,0.025354 -0.098938,0.019835 0.3767038,0.039653 0.1716809,0.00715 0.3438086,-0.00715 0.5154895,0 0.072934,0.00304 0.14517,0.016512 0.2180912,0.019827 0.262879,0.011949 0.529834,0 0.793061,0 0.216326,0 0.438271,0.012706 0.654275,0 0.05235,-0.00308 0.488138,-0.1066571 0.515489,-0.079306 0.02956,0.029556 -0.0309,0.078089 -0.03965,0.1189591 -0.01254,0.058517 -0.01095,0.1192557 -0.01983,0.1784387 -0.01096,0.07307 -0.03205,0.144595 -0.03965,0.218092 -0.05505,0.163396 -0.0071,0.330797 -0.01983,0.495663 -0.0084,0.108548 -0.01983,0.207461 -0.01983,0.317224 0,0.02679 0.0068,0.369931 0,0.376704 -0.02337,0.02337 -0.06611,-0.0013 -0.09913,0 -0.04246,0.0016 -0.739515,0.03283 -0.812887,0.03965 -0.369918,0.03441 -0.711707,0.112807 -1.0706317,0.198265 -0.2602602,0.06197 -0.5071179,0.05948 -0.7732342,0.05948 -0.1057414,0 -0.2117515,0.0075 -0.3172242,0 C 8.4996259,11.7567 8.1797931,11.665417 7.9107807,11.61834 7.8251567,11.60336 7.7378001,11.59795 7.6530359,11.57869 7.5918979,11.5648 7.5354223,11.53442 7.4745973,11.51921 7.4292613,11.50788 7.3813013,11.51011 7.3358116,11.49938 7.0801067,11.439215 6.8330451,11.359614 6.582404,11.281289 6.4178672,11.229871 6.2473804,11.184461 6.086741,11.122677 5.9487523,11.069604 5.8212579,10.989935 5.6902107,10.924411 5.4634425,10.811027 5.5550461,10.914778 5.2738538,10.666667 c -0.028896,-0.0255 -0.035821,-0.06872 -0.05948,-0.09913 C 5.1344608,10.464788 5.0298989,10.38004 4.9566295,10.270136 4.9031217,10.189875 4.8692582,10.056973 4.8376704,9.9727385 4.7493464,9.737208 4.683409,9.4960117 4.5997522,9.2589839 4.5414075,9.093674 4.4767779,8.9297141 4.4213135,8.7633209 4.3372131,8.5110196 4.2838449,8.248472 4.2230483,7.9900867 4.1933092,7.8636952 4.1478443,7.7410021 4.1239157,7.6133829 c -0.00609,-0.032478 0.00329,-0.066252 0,-0.099133 -0.016011,-0.1601052 -0.012406,-0.1559507 0,-0.3172243 0.011865,-0.1542427 -0.011026,-0.3017456 0.019827,-0.4560099 0.0082,-0.040986 0.028883,-0.078572 0.039653,-0.1189591 C 4.2577484,6.343233 4.2991034,6.0927785 4.44114,5.8289963 4.4637342,5.7870357 4.4980193,5.7520875 4.5204461,5.7100372 4.5510765,5.6526052 4.5681419,5.588497 4.5997522,5.5315985 4.6862787,5.3758508 4.7972615,5.2441655 4.9169765,5.1152416 4.9711274,5.0569252 5.0138247,4.9869861 5.0755886,4.936803 5.1214657,4.8995279 5.18133,4.8839323 5.2342007,4.8574969 6.373917,4.2876388 5.1124236,4.8950197 5.8686493,4.5799257 6.1034182,4.4821053 6.3230614,4.3482428 6.5625774,4.2627014 6.6728638,4.2233134 6.787698,4.1980089 6.8996283,4.1635688 c 0.059924,-0.018438 0.1174466,-0.044958 0.1784386,-0.05948 0.078214,-0.018622 0.1593533,-0.022574 0.2379182,-0.039653 0.073633,-0.016007 0.1440702,-0.04538 0.2180917,-0.05948 0.3702039,-0.070515 0.7576346,-0.036021 1.1301116,-0.019826 0.1253061,0.00545 0.251441,-0.00626 0.3767038,0 0.2317854,0.011589 0.4621428,0.028064 0.6939281,0.039653 0.206759,0.010338 0.7717207,0.040662 0.9516727,-0.079306 0.0055,-0.00367 -0.0047,-0.015153 0,-0.019827 0.0093,-0.00935 0.03031,0.00935 0.03965,0 0.0099,-0.00991 -0.0079,-0.047584 0,-0.05948 0.01037,-0.015553 0.03599,-0.021323 0.03965,-0.039653 0.0041,-0.020493 -0.01983,-0.038581 -0.01983,-0.05948 0,-0.0402 0.01322,-0.079306 0.01983,-0.1189591 z"
     id="path2" />
</svg>
