<?xml version="1.0" encoding="UTF-8" standalone="no"?>
<svg
   width="14"
   height="16"
   viewBox="0 0 14 16"
   fill="none"
   version="1.1"
   id="svg1"
   sodipodi:docname="layers.svg"
   inkscape:version="1.3.2 (091e20ef0f, 2023-11-25)"
   xmlns:inkscape="http://www.inkscape.org/namespaces/inkscape"
   xmlns:sodipodi="http://sodipodi.sourceforge.net/DTD/sodipodi-0.dtd"
   xmlns="http://www.w3.org/2000/svg"
   xmlns:svg="http://www.w3.org/2000/svg">
  <defs
     id="defs1" />
  <sodipodi:namedview
     id="namedview1"
     pagecolor="#505050"
     bordercolor="#eeeeee"
     borderopacity="1"
     inkscape:showpageshadow="0"
     inkscape:pageopacity="0"
     inkscape:pagecheckerboard="0"
     inkscape:deskcolor="#505050"
     inkscape:zoom="50.4375"
     inkscape:cx="7.0086741"
     inkscape:cy="8"
     inkscape:window-width="1920"
     inkscape:window-height="1012"
     inkscape:window-x="0"
     inkscape:window-y="40"
     inkscape:window-maximized="1"
     inkscape:current-layer="svg1" />
  <path
     style="fill:#000000"
     d="M 0.53531599,7.4944238 C 1.1951789,6.9041192 1.7551954,6.2136699 2.3395291,5.551425 2.4151924,5.4656733 2.476767,5.3547076 2.5576208,5.2738538 3.0054999,4.8259747 2.3182608,5.5828469 2.8550186,4.9566295 3.0929368,4.6790582 3.0070219,4.7914085 3.2713755,4.5402726 3.2952932,4.5175508 3.6354561,4.1748632 3.6480793,4.1635688 3.7563818,4.0666665 3.8519747,4.0106472 3.9653036,3.9256506 c 0.033854,-0.02539 0.062846,-0.057534 0.099133,-0.079306 0.030518,-0.018311 0.069976,-0.019244 0.099133,-0.039653 0.038284,-0.026799 0.066088,-0.066088 0.099133,-0.099133 C 4.3877573,3.5825029 4.5085627,3.4498027 4.6394052,3.330855 4.7355213,3.2434767 4.8450696,3.1648436 4.936803,3.0731103 4.960169,3.0497443 4.976456,3.0202393 4.996283,2.9938043 5.022718,2.9739773 5.0505,2.9558293 5.075589,2.9343243 5.1514652,2.8692876 5.1986745,2.7830589 5.2738538,2.716233 5.3555053,2.6436538 5.5026586,2.5368801 5.5712515,2.4584882 5.5907141,2.4362454 5.5919835,2.4018874 5.6109046,2.3791822 5.6473,2.3355077 5.7065254,2.317048 5.7496902,2.2800496 5.9669068,2.0938639 6.2283669,1.9669594 6.4634449,1.8042131 c 0.042439,-0.029381 0.078046,-0.067661 0.1189591,-0.099133 0.3675049,-0.2826961 -0.0843,0.072087 0.2775712,-0.1784386 0.042439,-0.029381 0.079306,-0.066088 0.1189591,-0.099133 0.052871,-0.033044 0.1060118,-0.06566 0.1586122,-0.099133 0.035701,-0.022719 0.061283,-0.060381 0.099133,-0.079306 0.024372,-0.012186 0.054406,-0.00876 0.079306,-0.019826 0.035215,-0.015651 0.064051,-0.043533 0.099133,-0.05948 0.038051,-0.017296 0.080908,-0.022357 0.1189591,-0.039653 0.035082,-0.015946 0.062222,-0.048406 0.099133,-0.059479 0.031651,-0.0095 0.06642,0.00467 0.099133,0 0.046399,-0.00663 0.086242,-0.031503 0.1387856,-0.019826 0.418452,0.092989 0.6871256,0.3031265 1.0508055,0.4956629 0.057525,0.030455 0.1226248,0.045818 0.1784386,0.079306 0.1111984,0.066719 0.1775078,0.1799175 0.2775713,0.2577447 0.030418,0.023659 0.070489,0.0337 0.099133,0.05948 0.038366,0.03453 0.062634,0.082461 0.099133,0.1189591 0.1618,0.1618 0.3337513,0.3139248 0.4956624,0.4758364 0.170782,0.1707815 0.293333,0.3789093 0.45601,0.5551425 0.240983,0.2610648 0.492563,0.5121312 0.733581,0.7732342 0.212137,0.2298143 0.438835,0.4494113 0.634449,0.6939281 0.06078,0.075979 0.103351,0.1605535 0.158612,0.2379182 0.0163,0.022816 0.04153,0.03794 0.05948,0.05948 0.02465,0.029573 0.08624,0.1392658 0.09913,0.1586121 0.03666,0.054989 0.07595,0.1084341 0.118959,0.1586122 0.03041,0.035481 0.07321,0.06025 0.09913,0.099133 0.01639,0.024592 0.02019,0.057063 0.03965,0.079306 0.02787,0.031847 0.06768,0.050997 0.09913,0.079306 0.102538,0.092284 0.220486,0.1808325 0.317225,0.2775713 0.01477,0.014769 0.02845,0.068103 0.03965,0.079306 0.0047,0.00467 0.01515,-0.00467 0.01983,0 0.218868,0.2188675 0.320482,0.574128 0.337051,0.8723668 0.01019,0.1833777 0,0.3714061 0,0.5551425 0,0.1855353 0.0093,0.3709413 -0.01983,0.5551425 -0.03433,0.2174476 -0.03985,0.1434735 -0.09913,0.3568774 -0.01631,0.058708 -0.01937,0.1209818 -0.03965,0.1784386 -0.05005,0.1418007 -0.134574,0.2316013 -0.218092,0.3568774 -0.425108,0.637663 0.15164,-0.191164 -0.297398,0.4163568 -0.235187,0.3181946 -0.118817,0.2125296 -0.39653,0.5154895 -0.274391,0.2993361 -0.603571,0.5559733 -0.931846,0.7930603 -0.10081,0.07281 -0.207433,0.178032 -0.317225,0.237919 -0.206624,0.112704 -0.443264,0.172065 -0.654275,0.277571 -0.135916,0.06796 -0.247587,0.178288 -0.3767031,0.257745 -0.1278598,0.07868 -0.2705302,0.137909 -0.3965304,0.218091 -0.035701,0.02272 -0.064465,0.05504 -0.099132,0.07931 -0.1658701,0.116109 -0.3523858,0.23114 -0.535316,0.317225 -0.1338384,0.06298 -0.2936491,0.110616 -0.4163569,0.198265 -0.022816,0.0163 -0.035703,0.04462 -0.05948,0.05948 -0.03018,0.01886 -0.0673,0.02374 -0.099133,0.03965 C 8.11296,12.181438 7.7041701,12.477907 7.4547708,12.4114 7.2027441,12.344193 6.9743405,12.196855 6.7608426,12.054523 6.7013631,12.01487 6.6366798,11.982086 6.582404,11.935564 6.5432137,11.901972 6.5163156,11.856258 6.4832714,11.816605 6.4370095,11.770343 6.3945294,11.719961 6.3444857,11.677819 6.2686581,11.613964 6.1818346,11.563895 6.1065675,11.49938 6.008261,11.415118 5.8693836,11.249713 5.7695167,11.16233 5.6988671,11.100511 5.478897,10.952438 5.4126394,10.904585 5.3590629,10.865891 5.3100701,10.820653 5.2540273,10.785626 5.0202213,10.639497 4.7544884,10.552003 4.5006196,10.448575 3.9469102,10.22299 3.3752822,10.032777 2.8351921,9.7744734 2.3131521,9.5248021 2.8544726,9.7642871 2.4783147,9.5762082 2.3510429,9.5125723 2.3872233,9.5647108 2.260223,9.4572491 2.2102791,9.4149888 2.1708778,9.3613117 2.1214374,9.3184634 1.9441905,9.1648494 1.7531406,9.0294727 1.5861214,8.8624535 1.3020711,8.5428969 1.5529792,8.8089839 1.2887237,8.5650558 1.1275116,8.4162446 1.2109614,8.4830591 1.070632,8.3271375 1.0268655,8.2785081 0.97372988,8.2386122 0.93184634,8.1883519 0.89883905,8.1487432 0.8691265,8.085979 0.83271375,8.0495663 0.76849238,7.9853449 0.70178767,7.9503153 0.65427509,7.8711276 0.63444857,7.8380834 0.60910738,7.8077747 0.59479554,7.771995 c -0.004909,-0.012272 0.007931,-0.029079 0,-0.039653 -0.0142971,-0.019063 -0.0426302,-0.022804 -0.0594796,-0.039653 -0.009165,-0.00917 0.005985,-0.047509 0,-0.05948 -0.00836,-0.016719 -0.0427261,-0.021215 -0.039653,-0.039653 0.005851,-0.035105 0.0264354,-0.066088 0.039653,-0.099132 z"
     id="path1" />
  <path
     style="fill:#000000"
     d="m 0.29739777,8.7038414 c 0.30838666,0.2418791 0.46790659,0.6088071 0.73358113,0.8921933 0.063923,0.068185 0.1276362,0.1370533 0.1982652,0.1982652 0.029121,0.025238 0.067069,0.038104 0.099133,0.05948 0.080971,0.053981 0.1694859,0.1298329 0.2379182,0.1982661 0.4051289,0.405128 0.024702,0.03239 0.2577448,0.317224 0.1232309,0.150615 0.3660338,0.331462 0.5154894,0.45601 0.2822649,0.235221 0.5493259,0.484815 0.8525403,0.693928 0.3182858,0.219507 0.653853,0.424793 0.9913259,0.614622 0.054381,0.03059 0.3186405,0.155072 0.3568773,0.178439 0.056392,0.03446 0.10302,0.08322 0.1586122,0.118959 0.037292,0.02397 0.082509,0.03424 0.1189591,0.05948 0.3383465,0.23424 0.5752289,0.585034 0.9318463,0.793061 0.1263467,0.0737 0.1150165,0.05522 0.2577447,0.09913 0.1328356,0.04087 0.2595059,0.09155 0.3965304,0.118959 0.3140625,0.06281 0.6521835,0.07826 0.9714994,0.05948 0.1542895,-0.0091 0.2897884,-0.0573 0.4361834,-0.09913 0.052401,-0.01497 0.1072892,-0.02132 0.1586121,-0.03965 0.3333973,-0.119071 0.6807135,-0.494013 0.9714994,-0.693928 0.3655246,-0.251299 -0.015488,0.0077 0.2775713,-0.138786 0.029556,-0.01478 0.051285,-0.04197 0.079306,-0.05948 0.1427951,-0.08925 0.2935631,-0.166986 0.4361834,-0.257744 0.032511,-0.02069 0.070331,-0.03388 0.099133,-0.05948 0.031628,-0.02811 0.050203,-0.06841 0.079306,-0.09913 0.1930493,-0.203773 0.4022333,-0.392921 0.6146223,-0.574969 0.185264,-0.158797 0.395003,-0.29104 0.574969,-0.456009 0.174115,-0.159606 0.06326,-0.08511 0.257745,-0.237919 0.08941,-0.07025 0.186609,-0.130043 0.277571,-0.198265 0.10883,-0.08162 0.205792,-0.179742 0.317224,-0.257745 0.147561,-0.103292 0.295924,-0.202466 0.436184,-0.317224 0.0217,-0.01775 0.03615,-0.04393 0.05948,-0.05948 0.447898,-0.2488331 0.05363,0.0059 0.218092,-0.1586131 0.0274,-0.027403 0.08026,-0.053029 0.118959,-0.05948 0.06496,-0.010827 0.364543,-0.01791 0.436183,0 0.06405,0.016013 0.245361,0.1539747 0.277572,0.1982652 0.04852,0.066709 0.123774,0.4500639 0.138785,0.5551429 0.0047,0.03325 0.02365,0.218807 0.01983,0.237918 -0.0094,0.04718 -0.03022,0.09161 -0.03965,0.138785 -0.01235,0.06178 0.01929,0.06028 -0.01983,0.11896 -0.01555,0.02333 -0.04101,0.03838 -0.05948,0.05948 -0.141069,0.161222 -0.05536,0.113407 -0.297398,0.317224 -0.09815,0.08266 -0.215292,0.140144 -0.317224,0.218092 -0.05948,0.04626 -0.118959,0.09252 -0.178439,0.138786 -0.05287,0.03304 -0.108734,0.06172 -0.158612,0.09913 -0.0562,0.04215 -0.101218,0.09827 -0.158612,0.138786 -0.05559,0.03924 -0.121313,0.06217 -0.178439,0.09913 -0.203785,0.131861 -0.394981,0.278985 -0.594795,0.416357 -0.05446,0.03744 -0.103127,0.08306 -0.158613,0.118959 -0.281775,0.182325 -0.07863,0.01933 -0.297397,0.178439 -0.136952,0.0996 -0.258979,0.217881 -0.396531,0.317224 -0.421401,0.304346 0.07567,-0.0716 -0.376704,0.237919 -0.116727,0.07987 -0.221502,0.176181 -0.33705,0.257744 -0.1093263,0.07717 -0.2281586,0.140311 -0.3370515,0.218092 -0.1120207,0.08001 -0.2165297,0.169049 -0.3370508,0.237918 -0.1491755,0.08524 -0.3359956,0.07226 -0.4956629,0.138786 -0.040923,0.01705 -0.078036,0.04243 -0.1189591,0.05948 -0.038583,0.01608 -0.082157,0.01984 -0.1189591,0.03965 -0.050056,0.02695 -0.088541,0.07253 -0.1387857,0.09913 -0.2640583,0.139796 -0.565678,0.203533 -0.8327137,0.337051 -0.1300077,0.065 -0.2575677,0.158494 -0.3767039,0.237918 -0.034087,0.02273 -0.4831382,-0.03468 -0.5353159,-0.03965 -0.1881015,-0.01791 -0.3891734,-0.01303 -0.5749691,-0.05948 -0.2340041,-0.0585 -0.4524336,-0.16647 -0.6741016,-0.257745 -0.065818,-0.0271 -0.1353577,-0.046 -0.1982651,-0.07931 -0.1344656,-0.07119 -0.2433903,-0.184423 -0.3767039,-0.257745 -0.049476,-0.02721 -0.1088955,-0.03271 -0.1586121,-0.05948 -0.037259,-0.02006 -0.065279,-0.05391 -0.099133,-0.07931 -0.1091454,-0.08186 -0.00707,0.003 -0.1387856,-0.07931 C 4.489819,14.040322 4.486396,14.016402 4.4014903,13.93803 4.3119463,13.85537 4.2100878,13.786281 4.123919,13.700112 4.100553,13.676742 4.087805,13.644172 4.064439,13.620802 4.011157,13.567522 3.9469405,13.526332 3.8860003,13.482016 3.4486533,13.163946 4.1148213,13.660257 3.6282556,13.323404 3.5022504,13.236174 3.3966825,13.12613 3.2515517,13.065659 c -0.031106,-0.01296 -0.068026,-0.0069 -0.099133,-0.01983 -0.103708,-0.04321 -0.2010583,-0.100809 -0.2973978,-0.158612 -0.097499,-0.0585 -0.1907721,-0.12482 -0.2775713,-0.198266 -0.042809,-0.03622 -0.07451,-0.08477 -0.1189591,-0.118959 -0.042233,-0.03249 -0.094452,-0.04975 -0.1387856,-0.07931 C 2.2647137,12.454047 2.2139612,12.4114 2.1610905,12.371747 2.0883932,12.332094 2.0123601,12.298024 1.9429988,12.252788 1.701693,12.095415 1.5055903,11.880199 1.2688971,11.717472 1.2053869,11.673809 1.1331124,11.643638 1.070632,11.598513 0.90733351,11.480575 0.76756225,11.333074 0.61462206,11.201983 0.46662807,11.075131 0.26831024,10.945542 0.17843866,10.765799 c -0.0307106,-0.06142 -0.028942,-0.133999 -0.039653,-0.198265 -0.0352833,-0.2117 -0.0238639,-0.4395 0,-0.654275 0.0278409,-0.2505682 0.0198265,0.116753 0.0198265,-0.1784387 0,-0.1599067 -0.0225916,-0.3375219 0,-0.4956629 0.004766,-0.03336 0.0164734,-0.065601 0.0198265,-0.099133 0.003288,-0.03288 -0.00648,-0.06673 0,-0.099133 0.00698,-0.034899 0.0310213,-0.064606 0.039653,-0.099133 0.004809,-0.019234 -0.003888,-0.040038 0,-0.05948 0.0134117,-0.067059 0.0419585,-0.1161927 0.0793061,-0.1784386 z"
     id="path2" />
</svg>
