<?xml version="1.0" encoding="UTF-8" standalone="no"?>
<svg
   width="12"
   height="15"
   viewBox="0 0 12 15"
   fill="none"
   version="1.1"
   id="svg1"
   sodipodi:docname="locate.svg"
   inkscape:version="1.3.2 (091e20ef0f, 2023-11-25)"
   xmlns:inkscape="http://www.inkscape.org/namespaces/inkscape"
   xmlns:sodipodi="http://sodipodi.sourceforge.net/DTD/sodipodi-0.dtd"
   xmlns="http://www.w3.org/2000/svg"
   xmlns:svg="http://www.w3.org/2000/svg">
  <defs
     id="defs1" />
  <sodipodi:namedview
     id="namedview1"
     pagecolor="#505050"
     bordercolor="#eeeeee"
     borderopacity="1"
     inkscape:showpageshadow="0"
     inkscape:pageopacity="0"
     inkscape:pagecheckerboard="0"
     inkscape:deskcolor="#505050"
     inkscape:zoom="53.8"
     inkscape:cx="5.9944238"
     inkscape:cy="7.5"
     inkscape:window-width="1920"
     inkscape:window-height="1012"
     inkscape:window-x="0"
     inkscape:window-y="40"
     inkscape:window-maximized="1"
     inkscape:current-layer="svg1" />
  <path
     style="fill:#000000"
     d="m 0.63197026,13.866171 c 0.006196,-0.04337 0.007962,-0.08761 0.0185874,-0.130112 0.008092,-0.03237 0.0247832,-0.06196 0.0371747,-0.09294 0.0123916,-0.03717 0.0283635,-0.07334 0.0371747,-0.111524 0.009851,-0.04269 0.0123916,-0.08674 0.0185874,-0.130112 0.0185874,-0.04957 0.042923,-0.09734 0.0557621,-0.148699 0.0350809,-0.140323 0.0405939,-0.286861 0.0743494,-0.427509 0.0383692,-0.159872 0.12686704,-0.43238 0.18587364,-0.576208 0.070329,-0.171428 0.3121314,-0.676115 0.3903345,-0.836432 0.054666,-0.112065 0.1190662,-0.219586 0.1672863,-0.334572 0.068781,-0.164016 0.1052739,-0.346583 0.1301115,-0.520446 0.018139,-0.126976 0.018469,-0.02759 0.074349,-0.167286 0.041744,-0.104361 0.057092,-0.245626 0.092937,-0.35316 C 1.9294189,9.992406 1.9553389,9.951824 1.9702599,9.9070592 2.0791818,9.5802985 1.9251379,9.9460871 2.063197,9.5910781 2.1468813,9.37589 2.1379658,9.4703577 2.1933086,9.2379182 2.2235271,9.1110002 2.2255542,9.0063915 2.267658,8.8847584 2.4273374,8.4234622 2.6069972,7.9697658 2.7695167,7.5092937 2.8601455,7.2525122 2.7826644,7.4644109 2.8996283,7.2304833 2.9843531,7.0610336 3.0615263,6.8817797 3.1412639,6.7100372 3.3045843,6.3582703 3.4070166,5.9840288 3.5687732,5.6319703 3.6415359,5.4945296 3.7966018,5.2075494 3.866171,5.0557621 3.953871,4.8644172 4.0392657,4.6712363 4.1263941,4.4795539 c 0.029383,-0.064642 0.082141,-0.1398187 0.1115241,-0.204461 0.041183,-0.090603 0.066637,-0.189037 0.1115242,-0.2788104 0.016157,-0.032313 0.041867,-0.059588 0.055762,-0.092937 0.017348,-0.041636 0.022004,-0.087633 0.037175,-0.1301115 C 4.4806906,3.6659621 4.5339078,3.5644238 4.5724907,3.4572491 4.679264,3.1606566 4.7830463,2.8621753 4.8884758,2.5650558 5.0085933,2.226543 4.9367148,2.3768949 5.0557621,2.1189591 c 0.019774,-0.042843 0.03466,-0.087907 0.055762,-0.1301115 0.00784,-0.015674 0.027125,-0.022818 0.037175,-0.037175 0.038432,-0.054903 0.077044,-0.1098191 0.1115241,-0.1672863 0.021384,-0.03564 0.029798,-0.079069 0.055762,-0.1115241 0.024783,-0.030979 0.064884,-0.046297 0.092937,-0.074349 0.051915,-0.051915 0.1012574,-0.1289438 0.1486989,-0.1858736 0.047229,-0.022233 0.030825,-0.078274 0.055762,-0.1115242 0.032123,-0.042831 0.092083,0.00171 0.1301115,-0.074349 0.00554,-0.011083 -0.00876,-0.028413 0,-0.037175 0.013854,-0.013854 0.03946,-0.00772 0.055762,-0.018587 0.021872,-0.014581 0.03389,-0.041181 0.055762,-0.055762 0.067819,-0.045213 0.21876,-0.073277 0.2973978,-0.092937 0.2525957,-0.0631489 -0.083826,0.029813 0.1301115,-0.055762 0.045228,-0.0180914 0.1189259,0.006045 0.1672862,0 0.1329771,-0.0166221 0.2237591,-0.0245462 0.3531599,0.0185874 0.056455,0.0188182 0.1103192,0.0553605 0.1672862,0.0743495 0.024235,0.00808 0.0515,0.00716 0.074349,0.018587 0.023511,0.011756 0.030825,0.04745 0.055762,0.055762 0.011756,0.00392 0.025153,-0.00301 0.037175,0 0.038094,0.00952 0.1234584,0.1178494 0.1486989,0.1486989 0.080242,0.098074 0.1960732,0.2092756 0.2416356,0.3345725 0.01288,0.035418 0.0075,0.075503 0.018587,0.1115241 0.013877,0.045099 0.041688,0.085074 0.055762,0.1301116 0.054403,0.1740886 0.090499,0.3607795 0.1301115,0.5390334 0.078906,0.3550772 0.1758981,0.7046834 0.3159851,1.0408922 0.076997,0.1847926 0.1448634,0.3733277 0.2230484,0.5576208 0.1376545,0.3244715 0.3050166,0.635092 0.4275093,0.9665428 0.095787,0.2591875 0.1884229,0.5195496 0.2788104,0.7806691 0.083504,0.2412339 0.066082,0.2268586 0.1301115,0.464684 0.1100202,0.4086465 0.082455,0.2368842 0.2230483,0.7992565 0.022987,0.091947 0.034226,0.1865124 0.055762,0.2788105 0.082839,0.3550229 0.1820853,0.7135421 0.2973978,1.0594795 0.092666,0.2779995 0.2071793,0.4515334 0.334572,0.7063197 0.207086,0.4141707 -0.049809,-0.076675 0.130112,0.3345725 0.02002,0.045764 0.05433,0.084348 0.07435,0.1301115 0.02356,0.05385 0.03446,0.1125045 0.05576,0.1672863 0.09726,0.2500894 0.214762,0.4864038 0.297398,0.7434938 0.01748,0.05438 0.02332,0.11187 0.03718,0.167287 0.01713,0.06853 0.0446,0.134705 0.05576,0.204461 0.01374,0.08587 0.0096,0.173722 0.01859,0.260223 0.03028,0.292682 0.07334,0.579576 0.09294,0.873606 0.0174,0.26103 0.059,0.51977 0.07435,0.780669 0.0076,0.128554 0.0044,0.262724 0.01859,0.390334 0.01002,0.09021 0.05814,0.261319 0.07435,0.35316 0.06078,0.344412 -0.0094,-0.01945 0.01859,0.260223 0.0025,0.02542 0.01605,0.04893 0.01859,0.07435 0.01445,0.144504 -0.02683,0.361401 -0.130111,0.464684 -0.01859,0.01859 -0.0315,0.04565 -0.05576,0.05576 -0.267335,0.111389 -0.526724,-0.03102 -0.762082,-0.148699 -0.1790032,-0.0895 -0.3922198,-0.157575 -0.5390336,-0.297398 -0.085717,-0.08164 -0.1676904,-0.167791 -0.2416357,-0.260223 -0.025964,-0.03246 -0.034378,-0.07588 -0.055762,-0.111524 -0.038911,-0.06485 -0.085629,-0.12471 -0.1301115,-0.185874 -0.023334,-0.03208 -0.053557,-0.05915 -0.07435,-0.09294 -0.1051142,-0.17081 -0.052658,-0.14249 -0.1486989,-0.334572 -0.02614,-0.05228 -0.064281,-0.09775 -0.092937,-0.148699 C 8.6801423,12.599889 8.6232882,12.46426 8.5315985,12.342007 8.2689955,11.99187 8.585127,12.462759 8.2899628,12.04461 8.1655223,11.868319 8.1901566,11.857524 8.0669145,11.635688 8.0310339,11.571103 7.9087463,11.413853 7.8624535,11.356877 7.7478675,11.215848 7.6286485,11.099107 7.527881,10.947955 7.3676481,10.707606 7.566166,10.998285 7.434944,10.762082 7.362732,10.632101 7.2612702,10.526258 7.1933084,10.390335 c -0.028148,-0.0563 -0.075368,-0.161559 -0.092937,-0.223049 -0.00511,-0.01787 0.00635,-0.03829 0,-0.05576 -0.018938,-0.05208 -0.05252,-0.09776 -0.074349,-0.1486987 C 7.0105863,9.926808 7.0076117,9.885702 6.9888476,9.8513011 6.9698504,9.8164729 6.9334954,9.7931925 6.9144981,9.7583643 6.895734,9.7239635 6.8932382,9.6826484 6.8773234,9.6468401 6.8467211,9.5779849 6.7356755,9.462066 6.6914498,9.4052045 6.561793,9.2385028 6.5863937,9.1853902 6.394052,9.0892193 6.3704548,9.0774207 6.1762956,9.2046359 6.1524164,9.2193309 5.7299835,9.4792895 6.1424927,9.2170355 5.9107807,9.3494424 5.8461548,9.3863714 5.8014623,9.436078 5.7434944,9.4795539 5.6898803,9.5197645 5.6307427,9.5521248 5.5762082,9.5910781 5.3753432,9.734553 5.5724629,9.5948233 5.4275093,9.739777 5.3775573,9.789729 5.3101751,9.8199364 5.260223,9.8698885 5.2260057,9.9041058 5.1987785,9.9446717 5.1672862,9.9814126 4.8614991,10.338164 4.4959841,10.663773 4.1078067,10.929368 c -0.1350952,0.09243 -0.2822801,0.166117 -0.4275093,0.241636 -0.1451655,0.07549 -0.3051856,0.119914 -0.4460967,0.204461 -0.1524049,0.09144 -0.2933084,0.205725 -0.4460966,0.297397 -0.06657,0.03994 -0.1403899,0.06769 -0.204461,0.111525 -0.1393946,0.09537 -0.2705598,0.233107 -0.4089219,0.334572 -0.1306234,0.09579 -0.2706159,0.193699 -0.4089219,0.278811 -0.085084,0.05236 -0.1770979,0.09328 -0.2602231,0.148698 -0.091168,0.06078 -0.1872978,0.141008 -0.260223,0.223049 -0.026357,0.02965 -0.044861,0.0664 -0.07435,0.09294 -0.033209,0.02989 -0.076945,0.04606 -0.1115241,0.07435 -0.12953327,0.105982 -0.0612839,0.06568 -0.14869893,0.185874 -0.0253049,0.03479 -0.20473414,0.214437 -0.22304833,0.260223 -0.0784265,0.196066 -0.0200803,0.08629 -0.0371747,0.223048 -0.006196,0.02478 -0.0123916,0.04957 -0.0185874,0.07435 -0.006196,0.0062 -0.0164622,0.01009 -0.0185874,0.01859 -0.009345,0.03738 0.015892,0.151114 0.0185874,0.167286 z"
     id="path1" />
</svg>
