<?xml version="1.0" encoding="UTF-8" standalone="no"?>
<svg
   width="12"
   height="2"
   viewBox="0 0 12 2"
   fill="none"
   version="1.1"
   id="svg1"
   sodipodi:docname="minus.svg"
   inkscape:version="1.3.2 (091e20ef0f, 2023-11-25)"
   xmlns:inkscape="http://www.inkscape.org/namespaces/inkscape"
   xmlns:sodipodi="http://sodipodi.sourceforge.net/DTD/sodipodi-0.dtd"
   xmlns="http://www.w3.org/2000/svg"
   xmlns:svg="http://www.w3.org/2000/svg">
  <defs
     id="defs1" />
  <sodipodi:namedview
     id="namedview1"
     pagecolor="#505050"
     bordercolor="#eeeeee"
     borderopacity="1"
     inkscape:showpageshadow="0"
     inkscape:pageopacity="0"
     inkscape:pagecheckerboard="0"
     inkscape:deskcolor="#505050"
     inkscape:zoom="83.416667"
     inkscape:cx="6"
     inkscape:cy="1.000999"
     inkscape:window-width="1920"
     inkscape:window-height="1012"
     inkscape:window-x="0"
     inkscape:window-y="40"
     inkscape:window-maximized="1"
     inkscape:current-layer="svg1" />
  <path
     style="fill:#000000"
     d="m 1.3786214,1.5344655 c -0.2477523,0 -0.49550452,0 -0.74325676,0 -0.0527728,0 -0.18075906,0.013432 -0.22777223,0 -0.0699663,-0.01999 -0.21427024,-0.091362 -0.23976024,-0.1678321 -0.0435765,-0.1307295 0.008584,-0.2757726 0.0599401,-0.39560443 0.03516,-0.0820401 0.041082,-0.17148786 0.11988012,-0.22777223 0.0335401,-0.0239572 0.10393827,-0.0619486 0.14385614,-0.0719281 0.0155068,-0.003877 0.0320337,0.001447 0.047952,0 0.0819151,-0.007447 0.15714035,-0.011988 0.23976024,-0.011988 0.13586414,0 0.27172833,0 0.40759243,0 0.3479773,0 0.6951877,0.011988 1.042957,0.011988 0.2351195,0 0.4722964,0.007833 0.7072927,0 0.044113,-0.00147 0.087776,-0.009984 0.1318682,-0.011988 0.2432662,-0.0110576 0.4879569,0.010138 0.7312687,0 0.1478736,-0.006161 0.2956043,-0.018692 0.4435564,-0.023976 0.2317683,-0.008277 0.1236098,0.007726 0.3476524,0 0.1200748,-0.004141 0.2395655,-0.0198355 0.3596404,-0.023976 0.052829,-0.001822 0.3340231,0.002212 0.3716283,0 0.068283,-0.004017 0.1355209,-0.0198381 0.2037962,-0.023976 0.1356153,-0.008219 0.2717779,0.003671 0.4075924,0 0.076001,-0.002054 0.1517709,-0.009934 0.2277723,-0.011988 0.139809,-0.003779 0.279793,0.004509 0.4195804,0 0.3356937,-0.0108288 0.6709859,-0.0401379 1.006993,-0.047952 0.2955458,-0.006873 0.5915415,0.005796 0.8871129,0 0.3360545,-0.006589 0.6711526,-0.0380744 1.006993,-0.0479521 0.1514886,-0.004456 0.303953,0 0.4555444,0 0.1118881,0 0.2239311,-0.005881 0.3356641,0 0.168027,0.008844 0.33547,0.0271205 0.503497,0.035964 0.06796,0.003577 0.13578,0.0141135 0.203796,0.011988 0.06044,-0.001889 0.119528,-0.0193382 0.17982,-0.023976 0.174948,-0.0134575 0.356958,-0.006665 0.527473,0.035964 0.0055,0.001371 0.0069,0.009461 0.01199,0.011988 0.08979,0.0448955 0.09762,0.0676811 0.11988,0.16783217 0.0145,0.0652426 0.04952,0.20271743 0.03596,0.26373626 -0.0039,0.0174451 -0.01833,0.0309984 -0.02398,0.047952 -0.02161,0.064825 -0.01468,0.1399312 -0.03596,0.2037962 -0.0074,0.022105 -0.0265,0.038648 -0.03596,0.05994 -0.05034,0.1132596 -0.01042,0.1463881 -0.131868,0.2157842 -0.1276,0.072914 -0.301785,0.047952 -0.443557,0.047952 -0.275468,0 -0.551832,-0.00688 -0.827173,0 -0.3973617,0.00993 -0.0891,0.00411 -0.407592,0.035964 -0.1460199,0.014602 -0.2977382,0.00373 -0.4435565,0.011988 -0.2154864,0.012197 -0.4112579,0.04206 -0.6233766,0.047952 -0.1952407,0.00542 -0.392395,-0.010834 -0.5874126,0 -0.024269,0.00135 -0.047693,0.010124 -0.071928,0.011988 -0.090815,0.00699 -0.1845078,0 -0.2757243,0 -0.1878121,0 -0.3756243,0 -0.5634365,0 -0.2605015,0 -0.5191238,0.021905 -0.7792208,0.035964 -0.1558215,0.00842 -0.3119432,0.012008 -0.4675325,0.023976 -0.2964977,0.022808 -0.1583917,0.029054 -0.4555444,0.035964 -0.3352316,0.0078 -0.6716716,0 -1.006993,0 -0.5453527,0 -1.0864291,-0.05192 -1.6303697,-0.083916 C 2.8705095,1.6680602 2.6916831,1.6787766 2.5174825,1.6663337 2.4650569,1.662589 2.4137365,1.6493041 2.3616384,1.6423576 2.2699774,1.6301362 2.1769466,1.622945 2.0859141,1.6063936 2.0223131,1.5948298 1.9588969,1.5758288 1.8941059,1.5704296 1.7941904,1.5621033 1.694219,1.5555275 1.5944056,1.5464535 c -0.043775,-0.00398 -0.088042,0.00337 -0.1318681,0 -0.060383,-0.00464 -0.1073025,-0.011988 -0.1678322,-0.011988"
     id="path1" />
</svg>
