<?xml version="1.0" encoding="UTF-8" standalone="no"?>
<svg
   width="20"
   height="20"
   viewBox="0 0 20 20"
   fill="none"
   version="1.1"
   id="svg1"
   sodipodi:docname="pin.svg"
   inkscape:version="1.3.2 (091e20ef0f, 2023-11-25)"
   xmlns:inkscape="http://www.inkscape.org/namespaces/inkscape"
   xmlns:sodipodi="http://sodipodi.sourceforge.net/DTD/sodipodi-0.dtd"
   xmlns="http://www.w3.org/2000/svg"
   xmlns:svg="http://www.w3.org/2000/svg">
  <defs
     id="defs1" />
  <sodipodi:namedview
     id="namedview1"
     pagecolor="#505050"
     bordercolor="#eeeeee"
     borderopacity="1"
     inkscape:showpageshadow="0"
     inkscape:pageopacity="0"
     inkscape:pagecheckerboard="0"
     inkscape:deskcolor="#505050"
     inkscape:zoom="40.35"
     inkscape:cx="10"
     inkscape:cy="10"
     inkscape:window-width="1920"
     inkscape:window-height="1012"
     inkscape:window-x="0"
     inkscape:window-y="40"
     inkscape:window-maximized="1"
     inkscape:current-layer="svg1" />
  <path
     style="fill:#000000"
     d="M 8.7484511,12.738538 C 8.6528512,12.554213 8.4744115,12.45086 8.3767038,12.267658 8.3434886,12.205379 8.3322027,12.133353 8.3023544,12.069393 8.2429653,11.94213 8.1785211,11.816737 8.1040892,11.697646 8.0603057,11.627592 8.0034067,11.566603 7.9553903,11.49938 7.8152163,11.303137 7.6867207,11.09115 7.5340768,10.904585 7.3272324,10.651775 7.0871169,10.424293 6.889715,10.16109 6.4498901,9.5746573 7.1055601,10.429987 6.716233,9.8636927 6.6197498,9.7233535 6.4785474,9.6150293 6.394052,9.4671623 6.3590334,9.4058796 6.3479934,9.3335618 6.3197026,9.2688971 6.2320929,9.0686463 6.1332251,8.8750882 6.047088,8.6741016 5.9757181,8.5075719 5.902807,8.3415997 5.8240397,8.1784387 5.7870631,8.1018443 5.7323277,8.0341106 5.7001239,7.9553903 5.6575798,7.8513936 5.6326962,7.741006 5.6009913,7.6332094 5.5545094,7.4751709 5.5648193,7.3230609 5.551425,7.1623296 5.540343,7.029345 5.4904161,6.8992043 5.4770756,6.7657993 c -0.021832,-0.218322 0.00119,-0.4861668 -0.024783,-0.6939282 -0.054892,-0.4391323 -0.029466,-0.8962987 0,-1.3382899 0.00769,-0.1153986 -0.0096,-0.2317089 0,-0.3469641 0.02846,-0.3415156 0.2135426,-0.9869126 0.4213135,-1.2639405 0.028039,-0.037385 0.071094,-0.061747 0.099133,-0.099133 0.022167,-0.029556 0.023443,-0.073009 0.049566,-0.099133 0.034061,-0.034061 0.089855,-0.040288 0.1239158,-0.074349 0.026124,-0.026124 0.023442,-0.073009 0.049566,-0.099133 0.018472,-0.018472 0.05395,-0.00846 0.074349,-0.024783 0.023259,-0.018607 0.026951,-0.054965 0.049566,-0.074349 0.036573,-0.031349 0.086301,-0.044258 0.1239157,-0.074349 0.091228,-0.072982 0.1609933,-0.169677 0.2478315,-0.2478314 0.039318,-0.035386 0.086512,-0.061729 0.1239158,-0.099133 0.029207,-0.029207 0.041305,-0.074349 0.074349,-0.099133 0.03559,-0.026692 0.085027,-0.027961 0.1239157,-0.049566 C 7.1678918,1.9960832 7.3014807,1.8635092 7.4597263,1.7843864 7.5228573,1.7528214 7.593116,1.7378404 7.6579915,1.7100374 8.0018007,1.5626905 8.3361307,1.4124396 8.6988837,1.313507 8.8649357,1.26822 9.0501294,1.287013 9.2193298,1.263941 9.3108438,1.251462 9.4001479,1.224574 9.4919444,1.214375 c 0.2982539,-0.033139 0.7085726,0 1.0161096,0 0.337332,0 0.679134,0.016046 1.016109,0 0.47391,-0.022567 0.93893,-0.031581 1.412639,0 0.04121,0.00275 0.08328,-0.00739 0.123916,0 0.133736,0.024316 0.267035,0.085067 0.39653,0.1239158 0.04035,0.012104 0.08448,0.00999 0.123916,0.024783 0.02789,0.010458 0.04831,0.035101 0.07435,0.049566 0.08074,0.044855 0.169509,0.074964 0.247832,0.1239157 0.440948,0.2755925 0.687067,0.9459602 0.842627,1.4126394 0.13152,0.3945611 0.173482,0.7771973 0.173482,1.1895911 0,0.1286907 0.01282,0.2683252 0,0.3965304 -0.01667,0.1666551 -0.08523,0.3287941 -0.09913,0.4956629 -0.0048,0.057628 0.0088,0.1163272 0,0.1734821 -0.01709,0.1110558 -0.07559,0.2123126 -0.09913,0.3221809 -0.01224,0.057118 -0.0087,0.1173151 -0.02478,0.173482 -0.05533,0.1936593 -0.170636,0.432104 -0.247831,0.6195787 -0.06253,0.1518603 -0.09224,0.2750742 -0.173482,0.4213135 -0.0434,0.078112 -0.104891,0.145167 -0.148699,0.2230483 -0.03084,0.054835 -0.04198,0.1195335 -0.07435,0.1734821 -0.0425,0.070838 -0.101059,0.130775 -0.148699,0.1982651 -0.05153,0.073002 -0.09384,0.1525143 -0.148699,0.2230484 -0.259852,0.3340946 -0.122253,0.1298353 -0.446097,0.3965303 -0.121831,0.1003319 -0.226481,0.2202337 -0.346964,0.322181 -0.152697,0.1292056 -0.321555,0.239014 -0.47088,0.3717472 -0.196237,0.1744328 -0.339566,0.3866667 -0.495663,0.5947955 -0.07743,0.1032334 -0.170406,0.1941644 -0.247831,0.2973978 -0.07149,0.095314 -0.12282,0.2051865 -0.198265,0.2973977 -0.03699,0.04521 -0.08887,0.077184 -0.123916,0.1239158 -0.06107,0.1068733 -0.122667,0.2239023 -0.198265,0.3221803 -0.04644,0.06037 -0.10443,0.111506 -0.148699,0.173482 -0.03871,0.0542 -0.06122,0.118722 -0.09913,0.173482 -0.105437,0.152298 -0.128879,0.140446 -0.247831,0.272615 -0.08913,0.09904 -0.154016,0.228365 -0.247832,0.322181 -0.13056,0.13056 -0.312392,0.268823 -0.421313,0.421313 -0.02147,0.03006 -0.02592,0.07075 -0.04957,0.09913 -0.056874,0.06825 -0.1809817,0.114059 -0.247832,0.173482 -0.103338,0.09186 -0.189199,0.210839 -0.2973978,0.297398 -0.037614,0.03009 -0.089854,0.04029 -0.1239157,0.07435 -0.021062,0.02106 -0.028505,0.05329 -0.049566,0.07435 -0.055045,0.05504 -0.1432204,0.09365 -0.1982652,0.148698 -0.069743,0.06974 -0.102485,0.176835 -0.173482,0.247832 -0.013062,0.01306 -0.038483,0.01001 -0.049566,0.02478 -0.00947,0.10641 -0.042815,0.0676 -0.07435,0.09913 -0.00826,0.0083 -0.016522,0.03304 -0.024783,0.02478 -0.011683,-0.01168 0.00272,-0.03327 0,-0.04957 -0.00692,-0.04155 -0.016522,-0.08261 -0.024783,-0.123916 z"
     id="path1" />
  <path
     style="fill:#000000"
     d="m 2.1065675,14.473358 c 0.049566,-0.01652 0.096977,-0.04218 0.1486989,-0.04957 0.2221587,-0.03174 0.5184474,0 0.7434944,0 0.4786212,0 0.959143,-0.0092 1.4374226,0 0.5208015,0.01001 1.0407333,0.05904 1.5613383,0.07435 0.2229519,0.0066 0.4463072,-0.0097 0.669145,0 0.082944,0.0036 0.1649125,0.02064 0.2478314,0.02478 0.2788232,0.01394 0.5635671,0 0.8426271,0 0.2790833,0 0.5639479,0.01548 0.842627,0 0.3425087,-0.01903 0.055255,-0.02316 0.3965303,-0.07435 0.1886111,-0.02829 0.3812081,-0.02259 0.5700124,-0.04957 0.0834,-0.01192 0.1643575,-0.03818 0.2478315,-0.04957 0.3424296,-0.04669 0.7022716,0.0053 1.0408926,-0.07435 0.06124,-0.01441 0.112446,-0.05909 0.173482,-0.07435 0.07257,-0.01814 0.148897,-0.0149 0.223048,-0.02478 0.426692,-0.05689 0.857764,-0.121764 1.288724,-0.148699 0.05771,-0.0036 0.116162,0.0076 0.173482,0 0.06752,-0.009 0.131309,-0.03701 0.198265,-0.04957 0.242219,-0.04542 0.148422,0.0054 0.371747,-0.07435 0.05925,-0.02116 0.112692,-0.05814 0.173482,-0.07435 0.231707,-0.06179 0.505711,-0.02478 0.743494,-0.02478 0.482167,0 0.958134,-0.01035 1.437423,0.04957 0.380106,0.04751 0.758081,0.13868 1.115242,0.272615 0.04766,0.01787 0.195662,0.04436 0.223048,0.09913 0.0074,0.01478 -0.004,0.03354 0,0.04957 0.04886,0.195443 -0.0035,0.396659 0.02478,0.594795 0.0079,0.0556 0.02773,0.105022 0.04957,0.148699 0.01469,0.02938 0.0094,0.300195 0,0.346964 -6.22e-4,0.0031 -0.03431,0.113749 -0.04957,0.123916 -0.01375,0.0092 -0.03354,-0.004 -0.04957,0 -0.01792,0.0045 -0.03304,0.01652 -0.04957,0.02478 -0.115655,0.01652 -0.230615,0.03899 -0.346964,0.04957 -0.168486,0.01532 -0.350974,0 -0.520447,0 -0.600717,0 -1.211466,-0.03499 -1.809169,0.02478 -0.248024,0.0248 -0.495185,0.08534 -0.743495,0.09913 -0.280425,0.01558 -0.561942,0.01356 -0.842627,0.02478 -0.183056,-7.73e-4 -0.362895,0.04197 -0.545229,0.04957 -0.231256,0.0096 -0.462619,0.01652 -0.693928,0.02478 -0.841573,0.03006 -1.6862287,-0.02806 -2.5278812,0 -0.1406025,0.0047 -0.2806937,0.02065 -0.4213135,0.02478 -0.3202838,0.0094 -0.6466453,-0.02133 -0.9665428,0 -0.074396,-0.0733 -0.1377663,0.03948 -0.1982651,0.04957 -0.089635,0.01494 -0.181846,0.0043 -0.2726147,0 -0.2316362,-0.01103 -0.4621883,-0.04098 -0.6939281,-0.04957 -0.1898739,-0.007 -0.3802233,0.009 -0.5700124,0 -0.2483862,-0.01183 -0.4956095,-0.03407 -0.7434944,-0.04957 -0.5688798,-0.03555 -1.1414414,0.02478 -1.7100372,0.02478 -0.215661,0 -0.8401229,0.03286 -1.016109,-0.09913 -0.1104843,-0.08286 -0.1128348,-0.146752 -0.1734821,-0.247831 -0.012022,-0.02004 -0.036605,-0.03012 -0.049566,-0.04957 -0.010143,-0.01522 0.00491,-0.05635 0,-0.07435 -0.022693,-0.08321 -0.054956,-0.163792 -0.074349,-0.247831 -0.00596,-0.02583 -0.015667,-0.572578 0,-0.619579 0.00148,-0.0045 0.1326165,-0.272615 0.099133,-0.272615 -0.024783,0 0,0.04957 0,0.07435 0,0.08207 0.00408,0.140225 0.024783,0.223048 z"
     id="path2" />
  <ellipse
     style="fill:#ffffff"
     id="path3"
     cx="9.9628248"
     cy="5.2044611"
     rx="2.2057002"
     ry="1.7100372" />
</svg>
