<?xml version="1.0" encoding="UTF-8" standalone="no"?>
<svg
   width="12"
   height="12"
   viewBox="0 0 12 12"
   fill="none"
   version="1.1"
   id="svg1"
   sodipodi:docname="plus.svg"
   inkscape:version="1.3.2 (091e20ef0f, 2023-11-25)"
   xmlns:inkscape="http://www.inkscape.org/namespaces/inkscape"
   xmlns:sodipodi="http://sodipodi.sourceforge.net/DTD/sodipodi-0.dtd"
   xmlns="http://www.w3.org/2000/svg"
   xmlns:svg="http://www.w3.org/2000/svg">
  <defs
     id="defs1" />
  <sodipodi:namedview
     id="namedview1"
     pagecolor="#505050"
     bordercolor="#eeeeee"
     borderopacity="1"
     inkscape:showpageshadow="0"
     inkscape:pageopacity="0"
     inkscape:pagecheckerboard="0"
     inkscape:deskcolor="#505050"
     inkscape:zoom="67.25"
     inkscape:cx="6"
     inkscape:cy="6"
     inkscape:window-width="1920"
     inkscape:window-height="1012"
     inkscape:window-x="0"
     inkscape:window-y="40"
     inkscape:window-maximized="1"
     inkscape:current-layer="svg1" />
  <path
     style="fill:#000000"
     d="m 5.6654275,0.49070632 c 0.019826,-0.004957 0.039248,-0.0119797 0.05948,-0.0148699 0.058682,-0.008383 0.2630603,0.0239146 0.3271375,0.0297398 0.069108,0.006283 0.1389054,-0.004075 0.2081784,0 0.030098,0.00177 0.059128,0.0129892 0.089219,0.0148699 0.04947,0.003092 0.099279,-0.003802 0.1486989,0 0.015628,0.001202 0.029031,0.013139 0.04461,0.0148699 0.1056918,0.0117435 0.2198673,0.004039 0.3122677,0.0594796 0.01344,0.008064 0.033526,0.003787 0.04461,0.0148699 0.015006,0.0150061 0.024729,0.13517657 0.02974,0.16356877 0.01989,0.11270949 0.032222,0.21565156 0.04461,0.32713751 0.00608,0.054693 0.023663,0.1088757 0.02974,0.1635688 0.00274,0.024632 -0.0035,0.049815 0,0.07435 0.00157,0.010972 0.013767,0.018711 0.01487,0.02974 0.00395,0.039456 -0.00329,0.079443 0,0.1189591 0.0042,0.050373 0.025542,0.098326 0.02974,0.1486989 0.042381,0.5085662 0.00547,1.023142 -0.01487,1.5315985 -0.00889,0.2223421 0.014798,0.4471695 0,0.669145 -0.00797,0.1196184 -0.034656,0.237437 -0.04461,0.3568774 -0.019895,0.2387386 0.025059,-0.061132 -0.01487,0.1784386 -0.024142,0.1448518 -0.077857,0.28352 -0.089219,0.4312268 -0.00646,0.084039 -0.011905,0.1843206 0,0.267658 0.00222,0.015517 0.01487,0.028935 0.01487,0.04461 0,0.055417 -0.024226,0.108427 -0.02974,0.1635688 -0.00395,0.039456 0.00652,0.079846 0,0.1189591 -0.00258,0.015461 -0.025953,0.033526 -0.01487,0.04461 0.00294,0.00294 0.1138884,0.014236 0.1189591,0.01487 0.020279,0.00253 0.039653,0.00991 0.05948,0.01487 0.04461,0.00496 0.089077,0.011427 0.133829,0.01487 0.1876555,0.014435 0.3762086,0.01487 0.5650558,0.01487 0.187815,0 0.3775926,0.00646 0.5650558,0 0.4411584,-0.015212 -0.064326,-0.01047 0.2825279,-0.02974 0.2224779,-0.01236 0.4464452,-0.020057 0.6691449,-0.02974 0.143428,-0.00624 0.2878449,0.00717 0.4312268,0 0.307574,-0.015379 0.6135237,-0.01487 0.9219327,-0.01487 0.04236,0 0.55712,-0.017515 0.609666,0 0.01456,0.00485 0.117464,0.043115 0.118959,0.04461 0.0035,0.0035 -0.0035,0.011365 0,0.01487 0.0035,0.0035 0.01212,-0.00412 0.01487,0 0.0087,0.013042 0.0079,0.03059 0.01487,0.04461 0.01292,0.025851 0.03423,0.047374 0.04461,0.074349 0.03964,0.1030636 0.06216,0.232327 0.07435,0.3420074 0.0055,0.049263 -0.0049,0.099379 0,0.1486989 0.01,0.099832 0.03183,0.2105283 0.01487,0.3122676 -0.0052,0.030922 -0.02149,0.058975 -0.02974,0.089219 -0.01275,0.04675 -0.02748,0.1548673 -0.02974,0.1933085 -0.0063,0.106311 -0.0041,0.1947349 -0.02974,0.2973978 -0.01168,0.04674 0.008,0.1009771 0,0.1486989 -0.0026,0.015461 -0.01179,0.02924 -0.01487,0.04461 -0.0019,0.00972 0.0044,0.020873 0,0.02974 -0.04026,0.080522 -0.31095,0.1090895 -0.386618,0.1189591 -0.261474,0.034105 -0.525185,0.02974 -0.788104,0.02974 -0.2884844,0 -0.5745055,-0.00459 -0.8624532,-0.01487 -0.1581664,-0.00565 -0.317764,0.00832 -0.4758365,0 C 8.6046996,7.331378 8.3306108,7.321973 8.0594815,7.301117 7.6336324,7.268359 8.1649208,7.310827 7.8661729,7.256507 c -0.02926,-0.00532 -0.060188,0.00645 -0.089219,0 -0.017446,-0.00388 -0.027426,-0.02483 -0.04461,-0.02974 -0.047659,-0.013617 -0.099279,0.0038 -0.1486989,0 C 7.506596,7.220837 7.404022,7.211423 7.3308569,7.182157 7.3243469,7.179557 7.3227869,7.168987 7.3159869,7.167287 7.2628739,7.154009 7.2065293,7.160737 7.1524182,7.152417 7.1275622,7.148597 6.8996301,7.08816 6.8996301,7.137547 c 0,0.00701 0.012266,0.00836 0.01487,0.01487 0.019219,0.048047 0.032059,0.098495 0.04461,0.1486988 0.029316,0.117265 0.040703,0.2511508 0.02974,0.3717473 -0.00458,0.05034 -0.02471,0.098402 -0.02974,0.1486988 -0.0099,0.09901 0.0099,0.049689 0,0.1486989 -0.00251,0.025148 -0.012582,0.049179 -0.01487,0.07435 -0.010277,0.1130459 0.00809,0.2287689 0,0.3420074 -9.623e-4,0.065595 -0.02474,0.1283063 -0.02974,0.1933086 -0.00532,0.069188 0.00385,0.1388924 0,0.2081784 -0.00829,0.1492516 -0.036758,0.2969204 -0.04461,0.4460966 -0.011519,0.2188537 -0.022896,0.4371389 -0.04461,0.6542751 -0.00562,0.056243 -0.026977,0.1404111 -0.04461,0.1933081 -0.00701,0.02103 -0.02337,0.03825 -0.02974,0.05948 -0.040351,0.134502 -0.053631,0.345677 -0.07435,0.490706 -0.020461,0.143225 -0.028471,0.308461 -0.074349,0.446097 -0.025597,0.07679 -0.054731,0.144574 -0.07435,0.223048 -0.019741,0.07897 -0.031511,0.159329 -0.04461,0.237918 -0.00244,0.01467 0.00361,0.03018 0,0.04461 -5.973e-4,0.0024 -0.072608,0.103044 -0.074349,0.104089 -0.1200979,0.07206 -0.2878027,0.04402 -0.4163568,0.02974 -0.1763596,-0.0196 -0.3574171,0.0039 -0.535316,-0.01487 -0.020324,-0.0021 -0.039321,-0.01151 -0.05948,-0.01487 -0.0388,-0.0065 -0.1154928,0.02642 -0.1486989,0.02974 -0.1489686,0.0149 -0.314419,0.0034 -0.4609665,-0.01487 -0.01006,-0.0013 -0.093499,0.01059 -0.1040892,0 -0.0035,-0.0035 0.00275,-0.01075 0,-0.01487 -0.00778,-0.01167 -0.02347,-0.0172 -0.02974,-0.02974 -0.0358,-0.0716 -0.01487,-0.193212 -0.01487,-0.267658 0,-0.108818 -0.015443,-0.233909 0,-0.342008 0.00188,-0.01316 0.054669,-0.106931 0.05948,-0.118959 0.029428,-0.07357 0.049869,-0.161038 0.05948,-0.237918 0.00369,-0.02951 -0.00269,-0.0596 0,-0.08922 0.027313,-0.300441 0.00292,0.185025 0.02974,-0.163568 0.00266,-0.03459 -0.00288,-0.06951 0,-0.10409 0.00442,-0.05298 0.025324,-0.110584 0.02974,-0.163568 0.00738,-0.0886 -0.00592,-0.1789314 0,-0.2676582 0.00299,-0.044785 0.01238,-0.089014 0.01487,-0.133829 0.00939,-0.1689489 -0.024855,-0.3358271 -0.01487,-0.5055762 0.00903,-0.1535517 0.037851,-0.3095666 0.05948,-0.4609665 0.027487,-0.1924102 -0.00212,0.079658 0.04461,-0.1189591 0.049874,-0.211964 0.01586,-0.2012266 0.04461,-0.4312268 0.016882,-0.1350534 0.048883,-0.2677864 0.074349,-0.401487 0.023123,-0.1213952 0.034897,-0.1511057 0.04461,-0.267658 0.00165,-0.019758 -0.00326,-0.039923 0,-0.05948 0.00182,-0.010933 0.011365,-0.019225 0.01487,-0.02974 0.016074,-0.048223 0.023387,-0.1127482 0.02974,-0.1635688 0.00107,-0.00855 0.015935,-0.1327635 0.01487,-0.133829 -0.017938,-0.017938 -0.1362218,0 -0.1635688,0 -0.066269,0 -0.1424644,-0.00821 -0.2081784,0 -0.015553,0.00194 -0.029057,0.012926 -0.04461,0.01487 -0.054102,0.00676 -0.1092341,-0.00453 -0.1635687,0 -0.080554,0.00671 -0.1578651,0.036604 -0.2379183,0.04461 -0.147082,0.014708 -0.2985166,-0.00922 -0.4460966,0 -0.1438031,0.00899 -0.287963,0.01439 -0.4312268,0.02974 -0.040641,0.00435 -0.079132,0.020549 -0.1189591,0.02974 -0.096368,0.022239 -0.1988297,0.034753 -0.2973978,0.04461 -0.059184,0.00592 -0.1189591,0 -0.1784386,0 -0.2043033,0 -0.4054671,-0.00599 -0.6096654,-0.01487 -0.1873573,-0.00815 -0.3784865,0.016961 -0.5650558,0 C 1.5861083,7.3371623 1.4765383,7.3038026 1.3828996,7.2862454 1.2143051,7.2546339 1.0451868,7.2305987 0.87732342,7.197026 0.78959695,7.1794807 0.71143044,7.1908456 0.62453532,7.1821561 0.5091148,7.1706141 0.39578629,7.141553 0.28252788,7.1226766 c -0.0229669,-0.00383 -0.0864056,0.00281 -0.10408922,-0.01487 -0.0260215,-0.026022 -0.0160172,-0.1955135 -0.0148699,-0.2230483 0.004957,-0.084263 0.009913,-0.1685254 0.0148699,-0.2527881 0.004957,-0.034696 0.0123728,-0.06913 0.0148699,-0.1040893 0.005309,-0.074325 0.009913,-0.1486988 0.0148699,-0.2230483 0.002308,-0.03462 -0.005276,-0.069796 0,-0.1040892 0.0107567,-0.069919 0.0505397,-0.1366598 0.0594796,-0.2081784 0.002459,-0.019674 -0.003259,-0.039923 0,-0.05948 0.003077,-0.01846 0.0333784,-0.118854 0.0446097,-0.133829 0.008412,-0.011216 0.0219632,-0.018075 0.0297398,-0.02974 0.0320431,-0.048065 0.0514933,-0.1034277 0.0892193,-0.1486989 0.0721425,-0.086571 0.19435308,-0.093785 0.29739777,-0.1040892 0.0251485,-0.00251 0.0490755,-0.01487 0.0743494,-0.01487 0.0912545,0 0.16510712,0.037559 0.25278807,0.05948 0.054144,0.013536 0.2622041,0.050377 0.3122676,0.05948 0.1312375,0.023861 0.2679242,0.051132 0.401487,0.05948 0.044523,0.00278 0.089296,-0.00262 0.133829,0 0.1584961,0.00932 0.3168969,0.037699 0.4758366,0.04461 0.1700613,0.00739 0.3361532,-0.00618 0.5055762,-0.01487 0.2455685,-0.012593 0.4985818,-0.011213 0.7434944,-0.04461 0.050084,-0.00683 0.098341,-0.025361 0.1486988,-0.02974 0.2093334,0 0.1695371,0.00535 0.3717472,-0.01487 0.069749,-0.00697 0.1383233,-0.023919 0.2081785,-0.02974 0.185701,-0.015475 0.3782873,0 0.5650557,0 0.088053,0 0.1889695,0.01136 0.267658,-0.01487 0.017514,-0.00584 0.084955,-0.1114971 0.089219,-0.1189591 0.029542,-0.051699 0.080666,-0.094044 0.1040892,-0.1486989 0.070846,-0.1653076 0.089219,-0.3735955 0.089219,-0.5501859 0,-0.2925823 0.029897,-0.584301 0.01487,-0.8773234 -0.00917,-0.1788222 -0.036093,-0.3564615 -0.04461,-0.535316 -0.010845,-0.2277479 -0.00399,-0.457704 0.01487,-0.6840149 0.012598,-0.1511758 0,-0.3091327 0,-0.4609665 0,-0.1964666 -0.034717,-0.3963208 -0.01487,-0.5947955 0.00949,-0.09495 0.034123,-0.1881519 0.04461,-0.2825279 0.00771,-0.069402 0.00716,-0.1387765 0.01487,-0.2081785 0.014338,-0.12904193 0.012139,0.010925 0.04461,-0.11895907 0.00962,-0.0384691 -0.00438,-0.0795486 0,-0.11895911 0.016588,-0.14929172 0.00211,-0.0127196 0.04461,-0.11895911 0.01027,-0.0256762 -0.00518,-0.078189 0,-0.10408922 0.00847,-0.0423402 0.055768,-0.13260007 0.074349,-0.16356847 z"
     id="path1" />
</svg>
