<?xml version="1.0" encoding="UTF-8" standalone="no"?>
<svg
   width="20"
   height="20"
   viewBox="0 0 20 20"
   fill="none"
   version="1.1"
   id="svg1"
   sodipodi:docname="question.svg"
   inkscape:version="1.3.2 (091e20ef0f, 2023-11-25)"
   xmlns:inkscape="http://www.inkscape.org/namespaces/inkscape"
   xmlns:sodipodi="http://sodipodi.sourceforge.net/DTD/sodipodi-0.dtd"
   xmlns="http://www.w3.org/2000/svg"
   xmlns:svg="http://www.w3.org/2000/svg">
  <defs
     id="defs1" />
  <sodipodi:namedview
     id="namedview1"
     pagecolor="#505050"
     bordercolor="#eeeeee"
     borderopacity="1"
     inkscape:showpageshadow="0"
     inkscape:pageopacity="0"
     inkscape:pagecheckerboard="0"
     inkscape:deskcolor="#505050"
     inkscape:zoom="40.35"
     inkscape:cx="10"
     inkscape:cy="10"
     inkscape:window-width="1920"
     inkscape:window-height="1012"
     inkscape:window-x="0"
     inkscape:window-y="40"
     inkscape:window-maximized="1"
     inkscape:current-layer="svg1" />
  <path
     style="fill:#000000"
     d="M 5.5762082,5.0557621 C 5.6009913,5.0144568 5.6147533,4.9640702 5.6505576,4.9318463 5.7495684,4.8427366 5.8866881,4.8074702 5.9975217,4.7335812 6.153942,4.629301 6.2527778,4.536054 6.394052,4.4114002 6.6574436,4.178996 6.9237212,3.9498764 7.1871128,3.7174721 7.3719973,3.5543387 7.6095916,3.2576273 7.8562577,3.1722429 8.2379888,3.0401052 8.7651226,2.9959716 9.1697646,2.8996283 c 0.1501323,-0.035746 0.2985921,-0.07853 0.4460966,-0.1239158 0.04252,-0.013083 0.080191,-0.041368 0.1239158,-0.049566 0.312476,-0.058589 0.192604,-0.00668 0.446097,-0.024783 0.09922,-0.00709 0.198921,-0.010715 0.297397,-0.024783 0.01829,-0.00261 0.03145,-0.02116 0.04957,-0.024783 0.150319,-0.030064 0.41075,0 0.570012,0 0.25181,0 0.518103,-0.025017 0.768278,0 0.156496,0.01565 0.314903,0.073136 0.470879,0.099133 0.136196,0.022699 0.289769,0.00572 0.421314,0.049566 0.03505,0.011683 0.06454,0.036594 0.09913,0.049566 0.06378,0.023919 0.137334,0.019101 0.198265,0.049566 0.03694,0.018472 0.06302,0.05429 0.09913,0.074349 0.19407,0.1078163 0.0509,4.997e-4 0.247832,0.074349 0.08094,0.030354 0.287288,0.1494396 0.346964,0.1982652 0.02921,0.023898 0.184811,0.18906 0.223048,0.2230483 0.109676,0.09749 0.225028,0.189502 0.297398,0.322181 0.182562,0.3346973 0.318292,0.6830406 0.446097,1.0408922 0.08502,0.2380661 0.184245,0.4912779 0.223048,0.7434944 0.0073,0.047253 -0.0061,0.2180917 0,0.2726146 0.01569,0.1411905 0.03693,0.275593 0.02478,0.4213135 -0.0091,0.1096851 -0.02286,0.2687609 -0.07435,0.3717472 -0.06561,0.131222 -0.01933,0.03529 -0.09913,0.099133 -0.123267,0.098613 -0.0296,0.072285 -0.198265,0.173482 -0.03815,0.022888 -0.08503,0.027961 -0.123916,0.049566 -0.09066,0.050367 -0.267059,0.1608999 -0.346964,0.2230484 -0.03689,0.02869 -0.06025,0.073211 -0.09913,0.099133 -0.03701,0.024677 -0.08577,0.026678 -0.123915,0.049566 -0.04536,0.027215 -0.07929,0.070734 -0.123916,0.099133 -0.04675,0.029752 -0.101946,0.044598 -0.148699,0.074349 -0.111871,0.071191 -0.183437,0.1813546 -0.297398,0.2478315 -0.07347,0.042855 -0.146975,0.085879 -0.223048,0.1239157 -0.03979,0.019895 -0.08833,0.022874 -0.123916,0.049566 -0.180347,0.1352605 -0.295819,0.3163847 -0.421313,0.4956629 -0.03033,0.043335 -0.07192,0.078557 -0.09913,0.1239158 -0.06762,0.1127012 -0.103202,0.2504227 -0.148699,0.3717472 -0.03496,0.093217 -0.08885,0.1698038 -0.09913,0.2726146 -0.04974,0.4973722 0.05857,-0.2027327 -0.02478,0.2973978 -0.02577,0.1545936 -0.06392,0.3144319 -0.07435,0.4708798 -0.01059,0.1587744 0.01891,0.2013094 -0.02478,0.3469634 -0.01062,0.03539 -0.03895,0.06375 -0.04957,0.09913 -0.02189,0.07295 -0.0388,0.147651 -0.04957,0.223048 -0.02683,0.187779 -0.02583,0.380159 -0.04957,0.570013 -0.0175,0.140008 -0.06163,0.28142 -0.07435,0.421313 -0.01683,0.185081 0.0064,0.358088 -0.02478,0.545229 -0.0112,0.0672 -0.04112,0.130669 -0.04957,0.198266 -0.0082,0.06558 0.0044,0.132323 0,0.198265 -0.0039,0.05828 -0.01949,0.115307 -0.02478,0.173482 -0.01937,0.213043 0.01777,0.431166 0,0.644362 -0.01599,0.191911 -0.08316,0.378367 -0.09913,0.570012 -0.0041,0.0494 0.0081,0.09981 0,0.148699 -0.02137,0.128201 -0.08367,0.251011 -0.123915,0.371747 -0.01332,0.03996 -0.01146,0.08395 -0.02478,0.123916 -0.03977,0.119314 -0.210033,0.390022 -0.322181,0.446097 -0.02337,0.01168 -0.05098,0.0131 -0.07435,0.02478 -0.02664,0.01332 -0.04571,0.04138 -0.07435,0.04957 -0.03177,0.0091 -0.06629,-0.0036 -0.09913,0 -0.109903,0.01221 -0.233629,0.04367 -0.346964,0.02478 -0.109672,-0.01828 -0.213501,-0.0774 -0.322181,-0.09913 -0.0386,-0.0077 -0.118058,-0.01893 -0.148699,-0.04957 -0.02612,-0.02612 -0.03659,-0.06454 -0.04957,-0.09913 -0.05005,-0.133456 -0.03989,-0.186204 -0.02478,-0.322181 0.0145,-0.130517 -0.01091,-0.265634 0,-0.396531 0.01498,-0.179806 0.04301,-0.362998 0.02478,-0.545229 -0.0042,-0.04191 -0.02059,-0.082 -0.02478,-0.123916 -0.01931,-0.19312 0,-0.401126 0,-0.594795 0,-0.153898 -0.01532,-0.317646 0,-0.47088 0.01592,-0.159202 0.02478,-0.309461 0.02478,-0.47088 0,-0.272614 0,-0.545229 0,-0.817844 0,-0.15466 -0.01399,-0.316942 0,-0.470879 0.0038,-0.04195 0.02097,-0.08197 0.02478,-0.123916 0.01267,-0.139321 -0.01162,-0.28189 0,-0.421314 0.01174,-0.1409173 0.02859,-0.281471 0.04957,-0.4213129 0.05085,-0.3389984 0.133822,-0.6682989 0.247832,-0.9913259 0.04347,-0.1231721 0.07928,-0.2489927 0.123916,-0.3717472 0.01262,-0.03472 0.03942,-0.06361 0.04957,-0.099133 0.0068,-0.02383 -0.006,-0.050306 0,-0.074349 0.01504,-0.060145 0.178463,-0.2825761 0.198265,-0.322181 0.122687,-0.2453741 0.231324,-0.4510621 0.47088,-0.5947955 0.02554,-0.015325 0.04609,-0.040147 0.07435,-0.049566 0.02351,-0.00784 0.0499,0.00407 0.07435,0 0.08169,-0.013616 0.164221,-0.041965 0.247831,-0.049566 0.05759,-0.00524 0.116162,0.00764 0.173482,0 0.13505,-0.018007 0.262932,-0.072413 0.396531,-0.099133 0.171042,-0.034209 0.313368,-0.056411 0.470879,-0.1239157 0.04435,-0.019005 0.163952,-0.089602 0.198266,-0.1239157 0.0902,-0.090201 -0.02635,-0.017413 0.04957,-0.074349 0.02383,-0.017871 0.05903,-0.024025 0.07435,-0.049566 0.01275,-0.021251 -0.01108,-0.052183 0,-0.074349 0.01568,-0.031349 0.05577,-0.044628 0.07435,-0.07435 0.02358,-0.037725 0.02826,-0.084861 0.04957,-0.1239157 0.02853,-0.052297 0.07249,-0.095417 0.09913,-0.1486989 0.15351,-0.3070196 0.28304,-0.9104835 0.173482,-1.2391574 C 13.343809,4.8393583 13.237252,4.6223246 13.085502,4.4857497 12.94891,4.3628169 12.908013,4.3826104 12.788104,4.2627014 12.758894,4.2334944 12.744624,4.1910104 12.713754,4.1635684 12.545636,4.0141301 12.124255,3.7993413 11.89591,3.7422549 c -0.06823,-0.017057 -0.157741,-0.00612 -0.223049,-0.024783 -0.02864,-0.00818 -0.04646,-0.039108 -0.07435,-0.049566 -0.137163,-0.051436 -0.305322,-0.046194 -0.446097,-0.074349 -0.05897,-0.011795 -0.11404,-0.040421 -0.173482,-0.049566 -0.156056,-0.024009 -0.337163,0 -0.495663,0 -0.223234,0 -0.5669707,-0.051087 -0.7682772,0.049566 -0.05316,0.02658 -0.2847311,0.1980818 -0.3221809,0.2230483 -0.244563,0.1630429 -0.5059664,0.3409648 -0.669143,0.594795 -0.039956,0.062154 -0.061117,0.1349059 -0.099133,0.1982652 -0.1069198,0.1781997 -0.1279014,0.1622742 -0.2478315,0.3221809 -0.035743,0.047657 -0.059556,0.1041748 -0.099132,0.1486989 -0.027442,0.030872 -0.069925,0.045142 -0.099133,0.074349 -0.021062,0.021062 -0.024783,0.057827 -0.049566,0.074349 -0.028341,0.018894 -0.068667,0.00955 -0.099133,0.024783 C 7.8347528,5.4002661 8.0338694,5.2643552 7.806691,5.3779419 7.6825094,5.4400329 7.5866137,5.5445961 7.459727,5.6009902 7.428602,5.6148242 7.39172,5.6119402 7.360594,5.6257732 7.2294848,5.6840442 7.1194761,5.7894445 6.9888468,5.8488215 6.801943,5.9337775 6.8825799,5.8710445 6.691449,5.9231705 6.520469,5.9698015 6.618688,5.9816045 6.4436175,5.9975205 6.2690647,6.0133902 5.9372363,6.0293369 5.7744734,5.9479554 5.6487793,5.8851084 5.6102514,5.8177767 5.551425,5.7001239 5.538105,5.6734829 5.52292,5.6468359 5.501859,5.6257749 c -0.00584,-0.00584 -0.021089,0.00739 -0.024783,0 -0.00975,-0.019501 0.016523,-0.1073923 0,-0.1239158 -0.00584,-0.00584 -0.021089,0.00739 -0.024783,0 C 5.421869,5.4410111 5.499215,5.4470041 5.477076,5.4027261 5.406572,5.2617178 5.415158,5.2538695 5.452293,5.1053284 5.455043,5.0943434 5.476818,4.9321041 5.477076,4.9318463 c 0.00966,-0.00966 0.084009,0 0.099133,0 0.016522,0 0.052806,-0.016201 0.049566,0 -0.00872,0.043623 -0.033044,0.08261 -0.049567,0.1239158 z"
     id="path1" />
  <path
     style="fill:#000000"
     d="m 9.6902107,16.05948 c 0.063932,-0.125363 0.1141753,-0.119046 0.2230483,-0.173482 0.095663,-0.04783 0.138694,-0.146198 0.247831,-0.173483 0.03206,-0.008 0.06673,0.0065 0.09913,0 0.01146,-0.0023 0.01652,-0.01652 0.02478,-0.02478 0.01652,-0.0083 0.03145,-0.02116 0.04957,-0.02478 0.07425,-0.01485 0.423967,-0.01792 0.495663,0 0.03584,0.009 0.06408,0.03788 0.09913,0.04957 0.05736,0.01912 0.268291,0.08458 0.346964,0.123916 0.408192,0.204096 0.71027,0.53116 0.94176,0.916977 0.10179,0.16965 0.211458,0.369959 0.247831,0.570012 0.07911,0.435134 -0.32757,1.035113 -0.768277,1.115242 -0.149183,0.02712 -0.375475,0 -0.520446,0 -0.175642,0 -0.395726,0.02905 -0.570013,0 -0.0773,-0.01288 -0.147017,-0.05534 -0.223048,-0.07435 -0.102119,-0.02553 -0.22435,-0.03877 -0.322181,-0.07435 -0.2749232,-0.09997 -0.5583986,-0.298953 -0.6939283,-0.570013 -0.097774,-0.195548 -0.099133,-0.431853 -0.099133,-0.644361 0,-0.451503 -0.036814,-0.832858 0.4213136,-1.016109 z"
     id="path2" />
</svg>
