<?xml version="1.0" encoding="UTF-8" standalone="no"?>
<svg
   width="34"
   height="28"
   viewBox="0 0 34 28"
   fill="none"
   version="1.1"
   id="svg20"
   sodipodi:docname="sad.svg"
   inkscape:version="1.3.2 (091e20ef0f, 2023-11-25)"
   xmlns:inkscape="http://www.inkscape.org/namespaces/inkscape"
   xmlns:sodipodi="http://sodipodi.sourceforge.net/DTD/sodipodi-0.dtd"
   xmlns="http://www.w3.org/2000/svg"
   xmlns:svg="http://www.w3.org/2000/svg">
  <sodipodi:namedview
     id="namedview20"
     pagecolor="#505050"
     bordercolor="#eeeeee"
     borderopacity="1"
     inkscape:showpageshadow="0"
     inkscape:pageopacity="0"
     inkscape:pagecheckerboard="0"
     inkscape:deskcolor="#505050"
     inkscape:zoom="28.821429"
     inkscape:cx="16.983891"
     inkscape:cy="14"
     inkscape:window-width="1920"
     inkscape:window-height="1012"
     inkscape:window-x="0"
     inkscape:window-y="40"
     inkscape:window-maximized="1"
     inkscape:current-layer="svg20" />
  <defs
     id="defs20">
    <filter
       id="filter0_dd_1357_7891"
       x="0.501465"
       y="0.84082"
       width="33"
       height="26.3184"
       filterUnits="userSpaceOnUse"
       color-interpolation-filters="sRGB">
      <feFlood
         flood-opacity="0"
         result="BackgroundImageFix"
         id="feFlood7" />
      <feColorMatrix
         in="SourceAlpha"
         type="matrix"
         values="0 0 0 0 0 0 0 0 0 0 0 0 0 0 0 0 0 0 127 0"
         result="hardAlpha"
         id="feColorMatrix7" />
      <feOffset
         dy="1"
         id="feOffset7" />
      <feGaussianBlur
         stdDeviation="0.85"
         id="feGaussianBlur7" />
      <feComposite
         in2="hardAlpha"
         operator="out"
         id="feComposite7" />
      <feColorMatrix
         type="matrix"
         values="0 0 0 0 0 0 0 0 0 0 0 0 0 0 0 0 0 0 0.1 0"
         id="feColorMatrix8" />
      <feBlend
         mode="normal"
         in2="BackgroundImageFix"
         result="effect1_dropShadow_1357_7891"
         id="feBlend8" />
      <feColorMatrix
         in="SourceAlpha"
         type="matrix"
         values="0 0 0 0 0 0 0 0 0 0 0 0 0 0 0 0 0 0 127 0"
         result="hardAlpha"
         id="feColorMatrix9" />
      <feOffset
         dy="1"
         id="feOffset9" />
      <feGaussianBlur
         stdDeviation="2.25"
         id="feGaussianBlur9" />
      <feComposite
         in2="hardAlpha"
         operator="out"
         id="feComposite9" />
      <feColorMatrix
         type="matrix"
         values="0 0 0 0 0 0 0 0 0 0 0 0 0 0 0 0 0 0 0.15 0"
         id="feColorMatrix10" />
      <feBlend
         mode="normal"
         in2="effect1_dropShadow_1357_7891"
         result="effect2_dropShadow_1357_7891"
         id="feBlend10" />
      <feBlend
         mode="normal"
         in="SourceGraphic"
         in2="effect2_dropShadow_1357_7891"
         result="shape"
         id="feBlend11" />
    </filter>
    <linearGradient
       id="paint0_linear_1357_7891"
       x1="8.73798"
       y1="24.1544"
       x2="25.2627"
       y2="7.62965"
       gradientUnits="userSpaceOnUse">
      <stop
         stop-color="#305DB6"
         id="stop11" />
      <stop
         offset="1"
         stop-color="#3972E2"
         id="stop12" />
    </linearGradient>
    <linearGradient
       id="paint1_linear_1357_7891"
       x1="23.8965"
       y1="13.6879"
       x2="6.39559"
       y2="21.6428"
       gradientUnits="userSpaceOnUse">
      <stop
         stop-color="#DADADA"
         id="stop13" />
      <stop
         offset="0.094639"
         stop-color="#DCDCDC"
         id="stop14" />
      <stop
         offset="0.19477"
         stop-color="#F9F9F9"
         id="stop15" />
      <stop
         offset="0.452282"
         stop-color="#D8D8D8"
         id="stop16" />
      <stop
         offset="0.534564"
         stop-color="#EFEEEE"
         id="stop17" />
      <stop
         offset="0.642104"
         stop-color="#CCCCCC"
         id="stop18" />
      <stop
         offset="0.766595"
         stop-color="#C2C2C2"
         id="stop19" />
      <stop
         offset="1"
         stop-color="#737373"
         id="stop20" />
    </linearGradient>
  </defs>
  <g
     id="g21">
    <path
       style="fill:#ffffff;stroke:none"
       d="m 10.027261,6.6270136 c 0.150427,-0.1781645 0.371664,-0.2506041 0.555143,-0.3816604 0.02662,-0.019014 0.04013,-0.054764 0.06939,-0.069393 0.02069,-0.010344 0.0487,0.010345 0.06939,0 0.01034,-0.00517 -0.0093,-0.027757 0,-0.034696 0.0746,-0.055946 0.159475,-0.097086 0.242874,-0.1387856 0.05571,-0.027853 0.119407,-0.038492 0.173482,-0.069393 0.0284,-0.01623 0.03933,-0.056507 0.06939,-0.069393 0.0542,-0.02323 0.116997,-0.017751 0.173482,-0.034696 0.119311,-0.035793 0.233566,-0.087241 0.346964,-0.1387856 0.108401,-0.049273 0.200776,-0.1316725 0.312268,-0.1734821 0.09984,-0.03744 0.208823,-0.043532 0.312268,-0.069393 0.09252,-0.023131 0.185047,-0.046262 0.277571,-0.069393 0.09252,-0.034696 0.182092,-0.078628 0.277571,-0.1040892 0.07902,-0.021072 0.163537,-0.014862 0.242875,-0.034696 0.137602,-0.034401 0.273338,-0.1183543 0.416357,-0.1387857 0.319153,-0.045593 -0.06133,0.067193 0.312268,-0.034696 0.235373,-0.064193 0.484235,-0.1463277 0.728624,-0.173482 0.161938,-0.017993 0.323812,-0.016703 0.48575,-0.034696 0.220787,-0.024532 0.436964,-0.1165589 0.659232,-0.1387856 0.160313,-0.016031 0.325436,0.016031 0.485749,0 0.05868,-0.00587 0.115655,-0.023131 0.173482,-0.034696 0.08096,0 0.162155,0.00621 0.242875,0 0.20723,-0.015941 0.418269,-0.076587 0.624535,-0.1040892 0.616244,-0.082166 1.407199,-0.1396599 2.012392,0 0.07127,0.016448 0.136774,0.053525 0.208178,0.069393 0.03387,0.00753 0.06987,-0.0057 0.10409,0 0.23949,0.039915 0.591116,0.1624134 0.798017,0.2428748 0.06285,0.024443 0.112089,0.076183 0.173482,0.1040892 0.06659,0.030268 0.140946,0.040579 0.208178,0.069393 0.09508,0.040749 0.182491,0.098037 0.277572,0.1387857 0.428407,0.1836029 0.857218,0.3633003 1.24907,0.6245353 0.09623,0.064154 0.181341,0.1440247 0.277572,0.2081784 0.244031,0.1626875 0.257833,0.1275068 0.520446,0.2775713 0.425927,0.243387 0.971846,0.5207928 1.318463,0.8674101 0.0754,0.075398 0.135424,0.1649237 0.208179,0.2428749 0.294256,0.3152744 0.639643,0.5923195 0.902106,0.936803 0.08174,0.1072841 0.128171,0.2383818 0.208179,0.346964 0.217815,0.2956072 0.511003,0.535958 0.728624,0.8327138 0.06452,0.087986 0.108959,0.1895857 0.173482,0.2775712 0.179091,0.2442141 0.38804,0.4697071 0.589839,0.6939281 0.117582,0.130647 0.196238,0.285823 0.312268,0.416357 0.05433,0.06112 0.121695,0.110188 0.173482,0.173482 0.193051,0.235952 0.105351,0.205893 0.277571,0.48575 0.22749,0.369671 0.05329,-0.0037 0.242875,0.312267 0.03992,0.06653 0.06244,0.142725 0.104089,0.208179 0.03976,0.06248 0.09903,0.111004 0.138786,0.173482 0.127328,0.200087 0.237588,0.469891 0.312267,0.693928 0.03016,0.09048 0.03591,0.188272 0.06939,0.277571 0.03632,0.09686 0.104357,0.180024 0.138786,0.277572 0.03549,0.100549 0.04085,0.209529 0.06939,0.312267 0.02936,0.105717 0.07896,0.205465 0.104089,0.312268 0.08407,0.357297 0.118678,0.814318 0.173482,1.179678 0.07199,0.479913 0.179568,0.970868 0.208178,1.457249 0.0061,0.103909 -0.0058,0.208338 0,0.312267 0.01162,0.209137 0.05777,0.415399 0.06939,0.624536 0.04148,0.746608 -0.05323,-0.122824 0.0347,0.624535 0.04687,0.3984 0.09473,0.774363 0.06939,1.179678 -0.01427,0.228256 -0.05917,0.469344 -0.104089,0.693928 -0.0187,0.09352 -0.05756,0.182936 -0.06939,0.277571 -0.0057,0.0459 0.01271,0.0943 0,0.138786 -0.01853,0.06484 -0.08276,0.109505 -0.104089,0.173482 -0.04132,0.123971 0.134334,-0.142932 -0.0347,0.138785 -0.01683,0.02805 -0.05256,0.04134 -0.06939,0.06939 -0.01882,0.03136 -0.01834,0.07138 -0.0347,0.10409 -0.08017,0.160337 -0.162809,0.325618 -0.242874,0.485749 -0.02211,0.04423 -0.0888,0.09292 -0.10409,0.138786 -0.0073,0.02194 0.01034,0.0487 0,0.06939 -0.0052,0.01034 -0.02435,-0.0052 -0.0347,0 -0.210422,0.105211 -0.391585,0.07303 -0.624535,0.104089 -0.09454,0.0126 -0.182784,0.05886 -0.277572,0.06939 -0.379432,0.04216 -0.798653,0 -1.179677,0 -0.796472,0 -1.598249,0.02744 -2.394052,0 -0.684356,-0.0236 -0.386052,-0.04201 -1.110285,-0.10409 -0.167395,-0.01435 -0.856167,-0.03947 -1.075589,-0.06939 -0.105651,-0.01441 -0.206292,-0.05762 -0.312268,-0.06939 -0.02212,-0.0025 -0.548331,0.0022 -0.589839,0 -0.832343,-0.04381 -1.663575,-0.06939 -2.498141,-0.06939 -0.670797,0 -1.341594,0 -2.012391,0 -0.23131,0 -0.463207,-0.01648 -0.693929,0 -0.69133,0.04938 -1.385303,0.159075 -2.081784,0.104089 -0.210395,-0.01661 -0.416207,-0.07031 -0.624535,-0.104089 -0.663918,-0.107662 -0.647431,-0.122809 -1.318464,-0.138786 -2.3145473,-0.05511 0.586385,0.0347 -1.491945,0.0347 -0.215223,0 -1.2176868,-0.06309 -1.4572493,-0.06939 -0.2081064,-0.0055 -0.4164651,0.0067 -0.6245353,0 -0.9304689,-0.03001 -0.1113731,-0.01461 -0.6592317,-0.06939 -0.2489419,-0.02489 -0.5136758,0 -0.763321,0 -0.6476662,0 -1.2953325,0 -1.9429987,0 -0.196613,0 -0.3936614,-0.01308 -0.5898389,0 -0.2376593,0.01584 -0.4553458,0.06939 -0.6939282,0.06939 -0.034275,0 -0.1953367,0.01284 -0.2081784,0 -0.059175,-0.05917 0.1551432,-0.150559 0.173482,-0.173482 0.053046,-0.06631 0.1668911,-0.397683 0.1734821,-0.416357 0.2584869,-0.73238 0.498843,-1.458724 0.6592317,-2.22057 0.1900494,-0.902735 0.4542872,-1.781528 0.6939281,-2.671623 0.1234288,-0.45845 0.072302,-0.405674 0.2081784,-0.832714 0.2030158,-0.638049 0.068578,-0.12777 0.2775713,-0.728625 0.051679,-0.148576 0.083551,-0.303761 0.1387856,-0.451053 C 6.1878336,13.615591 6.4065741,13.240462 6.5576208,12.83767 6.7531021,12.316387 6.9310686,11.790261 7.1474597,11.276332 7.2858564,10.94764 7.475215,10.639499 7.598513,10.304833 7.7632522,9.8576834 7.6338082,10.075459 7.8066914,9.6802974 7.922884,9.4147143 8.0557663,9.1563699 8.1536555,8.88228 8.1819743,8.8029874 8.1906645,8.7171263 8.2230483,8.6394052 8.2489859,8.577155 8.3012,8.5281733 8.3271375,8.4659232 8.3926123,8.3087838 8.3898192,8.097685 8.4659232,7.9454771 c 0.025861,-0.051722 0.080603,-0.085942 0.1040892,-0.1387857 0.023951,-0.05389 0.012795,-0.1187273 0.034696,-0.173482 0.066258,-0.1656436 0.209906,-0.3077469 0.3122677,-0.4510533 0.054197,-0.075876 0.079092,-0.1712429 0.1387856,-0.2428748 0.026696,-0.032035 0.071527,-0.043343 0.1040892,-0.069393 0.025544,-0.020435 0.040134,-0.054763 0.069393,-0.069393 0.04636,-0.02318 0.2757765,-0.045664 0.3469641,-0.069393 0.1895626,-0.063188 0.2497509,-0.1040893 0.451053,-0.1040887 z"
       id="path20" />
    <path
       style="fill:#b3b3b3;stroke:none"
       d="m 3.8166047,21.442379 c 0.057827,-0.12722 0.1311105,-0.248493 0.173482,-0.38166 0.039206,-0.123219 0.034785,-0.257072 0.069393,-0.381661 0.023574,-0.08487 0.074774,-0.159816 0.1040892,-0.242875 0.068208,-0.193257 0.099913,-0.398558 0.173482,-0.589839 0.2192534,-0.570058 -0.014235,0.301063 0.2428749,-0.624535 0.1059801,-0.381528 -0.00718,-0.05384 0.034696,-0.346964 0.012771,-0.0894 0.1412764,-0.503957 0.173482,-0.589839 0.027241,-0.07264 0.088874,-0.132101 0.1040892,-0.208178 0.0068,-0.03402 -0.012886,-0.07187 0,-0.104089 0.012149,-0.03037 0.046262,-0.04626 0.069393,-0.06939 0.023131,-0.04626 0.051232,-0.09036 0.069393,-0.138786 0.1691547,-0.451079 -0.1388994,0.234457 0.1040893,-0.312268 0.11468,-0.25803 0.2726265,-0.489074 0.4163568,-0.728624 0.039916,-0.06653 0.062437,-0.142724 0.1040893,-0.208179 0.1228764,-0.193091 0.2884868,-0.363337 0.4163568,-0.555142 0.1982327,-0.297349 0.4147307,-0.578929 0.6245353,-0.86741 0.049053,-0.06745 0.079813,-0.149206 0.1387857,-0.208179 0.1825981,-0.182598 0.1885465,-0.100893 0.3816604,-0.208178 0.05055,-0.02808 0.085942,-0.0806 0.1387857,-0.104089 0.05389,-0.02395 0.1169965,-0.01775 0.173482,-0.0347 0.3113544,-0.09341 0.032894,-0.06209 0.4163569,-0.138785 0.3803904,-0.07608 0.7662059,-0.119055 1.1449814,-0.208179 0.2535681,-0.05966 0.5386803,-0.137171 0.7633209,-0.277571 0.049037,-0.03065 0.087063,-0.07823 0.1387857,-0.104089 0.1358538,-0.06793 0.4445468,-0.144424 0.5898388,-0.173482 0.51382,-0.102764 0.0734,0.0031 0.451053,-0.0347 0.242701,-0.02427 0.483527,-0.08967 0.728625,-0.104089 0.23091,-0.01358 0.462819,0.0096 0.693928,0 0.556442,-0.02318 1.109247,-0.115611 1.665427,-0.138786 0.771985,-0.03217 1.551985,0 2.32466,0 0.529448,0 1.067122,-0.02519 1.596034,0 0.243698,0.0116 0.484927,0.05779 0.728625,0.06939 0.254152,0.0121 0.509837,-0.02204 0.763321,0 0.140171,0.01219 0.276457,0.0544 0.416357,0.06939 2.272061,0.243435 -1.096471,-0.190314 1.075588,0.138786 0.207096,0.03138 0.41744,0.03801 0.624536,0.06939 0.173878,0.02635 0.82382,0.170183 1.006195,0.208178 0.10481,0.02183 0.503969,0.09437 0.624536,0.138786 0.13113,0.04831 0.251909,0.121581 0.38166,0.173482 0.353877,0.141551 0.245096,0.05316 0.555143,0.208178 0.327692,0.163846 0.527861,0.422845 0.798017,0.659232 0.08704,0.07616 0.192588,0.129732 0.277571,0.208178 0.06638,0.06127 0.10961,0.144306 0.173482,0.208179 0.06387,0.06387 0.144306,0.109609 0.208179,0.173482 0.06387,0.06387 0.11272,0.14134 0.173482,0.208178 0.205257,0.225783 0.415294,0.407111 0.589839,0.659232 0.240453,0.347321 0.566881,0.611897 0.832713,0.936803 0.09549,0.116709 0.157041,0.257678 0.242875,0.38166 0.142926,0.206449 0.277341,0.416011 0.416357,0.624536 0.194147,0.291219 0.421897,0.559516 0.589839,0.86741 0.268864,0.492916 0.365791,1.056222 0.48575,1.596034 0.02069,0.0931 0.05371,0.183498 0.06939,0.277572 0.01902,0.114155 -0.05003,0.316289 0,0.416357 0.0052,0.01034 0.02313,0 0.0347,0 0,0.02313 0,0.04626 0,0.06939 0,0.03333 0.07524,0.13294 0.0347,0.173482 -0.07949,0.07949 -0.762398,0.0347 -0.902106,0.0347 -0.407669,0 -0.808022,-0.01776 -1.214374,-0.0347 -0.702109,-0.02925 -1.41361,0 -2.116481,0 -0.3097,0 -0.627532,-0.01819 -0.936803,0 -0.209098,0.0123 -0.415365,0.05838 -0.624535,0.06939 -0.501263,0.02638 -1.025129,0.01791 -1.526642,0 -0.832173,-0.02972 -1.663992,-0.107308 -2.498142,-0.06939 -0.417781,0.01899 -0.830248,0.125031 -1.24907,0.10409 -0.439859,-0.02199 -0.878523,-0.08409 -1.318464,-0.10409 -0.265731,-0.01208 -0.532208,0.01022 -0.798017,0 -0.553523,-0.02129 -1.113247,-0.06728 -1.665428,-0.104089 -0.960901,-0.06406 0.695472,-0.0082 -0.589838,-0.06939 -0.710895,-0.03385 -0.04331,0.04988 -0.832714,-0.0347 -0.622635,-0.06671 -0.415509,-0.08324 -1.040892,-0.104089 -0.370071,-0.01234 -0.74018,-0.02348 -1.110285,-0.0347 -0.184963,-0.0056 -0.370479,0.01191 -0.555143,0 -0.174654,-0.01127 -0.3458433,-0.05735 -0.5204459,-0.06939 -0.1615329,-0.01114 -0.3239625,0.0065 -0.4857497,0 C 9.0322137,21.47196 8.9058089,21.44816 8.7781959,21.44236 8.1525816,21.41392 7.530193,21.46821 6.90459,21.40766 6.7189696,21.3897 6.5353411,21.35314 6.3494475,21.33827 c -0.1037577,-0.0083 -0.2083223,0.0055 -0.3122677,0 C 5.9514568,21.33377 5.4764488,21.27982 5.3779481,21.26888 5.18119,21.24702 4.985575,21.21359 4.7881092,21.19949 c -0.069216,-0.0049 -0.1393215,0.0086 -0.2081784,0 -0.075065,-0.0094 -0.1221162,-0.05191 -0.2081785,-0.0347 -0.035863,0.0072 -0.068014,0.02868 -0.1040892,0.0347 -0.05359,0.0089 -0.2016131,-0.0066 -0.2428749,0.0347 -0.00818,0.0082 0.00818,0.02652 0,0.0347 -0.016356,0.01636 -0.053037,-0.01636 -0.069393,0 -0.00818,0.0082 0.00722,0.02567 0,0.0347 -0.04087,0.05109 -0.092524,0.09252 -0.1387856,0.138785 z"
       id="path21" />
  </g>
  <ellipse
     style="fill:#b3b3b3;stroke:none"
     id="path22"
     cx="12.5601"
     cy="10.807931"
     rx="2.0470879"
     ry="1.6480793" />
  <ellipse
     style="fill:#b3b3b3;stroke:none"
     id="path23"
     cx="21.425032"
     cy="10.91202"
     rx="2.4460967"
     ry="1.9256506" />
  <ellipse
     style="fill:#000000;stroke:none"
     id="path24"
     cx="12.594795"
     cy="11.831474"
     rx="1.2143742"
     ry="0.72862452" />
  <ellipse
     style="fill:#000000;stroke:none"
     id="path25"
     cx="21.546469"
     cy="12.213135"
     rx="1.5266418"
     ry="0.72862452" />
</svg>
