<?xml version="1.0" encoding="UTF-8" standalone="no"?>
<svg
   width="40"
   height="40"
   viewBox="0 0 40 40"
   fill="none"
   version="1.1"
   id="svg6"
   sodipodi:docname="stickermono.svg"
   inkscape:version="1.3.2 (091e20ef0f, 2023-11-25)"
   xmlns:inkscape="http://www.inkscape.org/namespaces/inkscape"
   xmlns:sodipodi="http://sodipodi.sourceforge.net/DTD/sodipodi-0.dtd"
   xmlns="http://www.w3.org/2000/svg"
   xmlns:svg="http://www.w3.org/2000/svg">
  <sodipodi:namedview
     id="namedview6"
     pagecolor="#505050"
     bordercolor="#eeeeee"
     borderopacity="1"
     inkscape:showpageshadow="0"
     inkscape:pageopacity="0"
     inkscape:pagecheckerboard="0"
     inkscape:deskcolor="#505050"
     inkscape:zoom="20.175"
     inkscape:cx="20"
     inkscape:cy="20"
     inkscape:window-width="1920"
     inkscape:window-height="1012"
     inkscape:window-x="0"
     inkscape:window-y="40"
     inkscape:window-maximized="1"
     inkscape:current-layer="svg6" />
  <defs
     id="defs6">
    <filter
       id="filter0_dd_1163_6884"
       x="1.7665"
       y="1.43301"
       width="36.4665"
       height="42.5666"
       filterUnits="userSpaceOnUse"
       color-interpolation-filters="sRGB">
      <feFlood
         flood-opacity="0"
         result="BackgroundImageFix"
         id="feFlood2" />
      <feColorMatrix
         in="SourceAlpha"
         type="matrix"
         values="0 0 0 0 0 0 0 0 0 0 0 0 0 0 0 0 0 0 127 0"
         result="hardAlpha"
         id="feColorMatrix2" />
      <feOffset
         dy="1"
         id="feOffset2" />
      <feGaussianBlur
         stdDeviation="1.05"
         id="feGaussianBlur2" />
      <feComposite
         in2="hardAlpha"
         operator="out"
         id="feComposite2" />
      <feColorMatrix
         type="matrix"
         values="0 0 0 0 0 0 0 0 0 0 0 0 0 0 0 0 0 0 0.25 0"
         id="feColorMatrix3" />
      <feBlend
         mode="normal"
         in2="BackgroundImageFix"
         result="effect1_dropShadow_1163_6884"
         id="feBlend3" />
      <feColorMatrix
         in="SourceAlpha"
         type="matrix"
         values="0 0 0 0 0 0 0 0 0 0 0 0 0 0 0 0 0 0 127 0"
         result="hardAlpha"
         id="feColorMatrix4" />
      <feOffset
         dy="3"
         id="feOffset4" />
      <feGaussianBlur
         stdDeviation="2.45"
         id="feGaussianBlur4" />
      <feComposite
         in2="hardAlpha"
         operator="out"
         id="feComposite4" />
      <feColorMatrix
         type="matrix"
         values="0 0 0 0 0 0 0 0 0 0 0 0 0 0 0 0 0 0 0.1 0"
         id="feColorMatrix5" />
      <feBlend
         mode="normal"
         in2="effect1_dropShadow_1163_6884"
         result="effect2_dropShadow_1163_6884"
         id="feBlend5" />
      <feBlend
         mode="normal"
         in="SourceGraphic"
         in2="effect2_dropShadow_1163_6884"
         result="shape"
         id="feBlend6" />
    </filter>
    <clipPath
       id="clip0_1163_6884">
      <rect
         width="40"
         height="40"
         fill="white"
         id="rect6" />
    </clipPath>
  </defs>
  <path
     style="fill:#e6e6e6"
     d="m 19.479554,2.3791822 c -1.11602,0.1014563 0.02638,-0.034409 -1.090459,0.1982651 -0.212746,0.044322 -0.431615,0.05481 -0.644361,0.099133 -1.60779,0.3349562 0.686691,-0.046504 -1.239158,0.2973978 -0.230019,0.041075 -0.464808,0.053308 -0.693928,0.099133 -0.173195,0.034639 -0.628804,0.1676478 -0.842627,0.2478315 -0.06918,0.025944 -0.126582,0.081212 -0.198265,0.099133 -0.186995,0.046749 -0.408601,0.02931 -0.594796,0.099133 -0.05578,0.020917 -0.09218,0.080294 -0.148699,0.099133 -0.09534,0.031781 -0.202055,0.017785 -0.297397,0.049566 -0.105146,0.035049 -0.193021,0.1114215 -0.297398,0.1486989 -0.128307,0.045824 -0.267277,0.056048 -0.39653,0.099133 -0.119372,0.039791 -0.225977,0.1141311 -0.346965,0.1486989 -0.112333,0.032095 -0.231309,0.033044 -0.346964,0.049566 -0.132176,0.033044 -0.266487,0.058494 -0.39653,0.099133 -0.134739,0.042106 -0.260132,0.1123259 -0.39653,0.1486989 -0.112884,0.030102 -0.236131,0.012622 -0.346964,0.049566 -0.140195,0.046732 -0.257177,0.1490817 -0.396531,0.1982652 -0.143642,0.050697 -0.300704,0.053698 -0.446096,0.099133 C 10.030063,4.8117019 9.5817246,5.0089085 9.2688971,5.1548947 9.1481886,5.2112253 9.0439702,5.2997686 8.9219331,5.3531599 8.7783324,5.4159852 8.6194371,5.4390334 8.4758364,5.5018587 7.981771,5.7180124 6.8740861,6.4592473 6.4931846,6.8401487 6.2512684,7.0820649 5.8509639,7.5146999 5.6505576,7.7819083 5.436101,8.0678504 5.2607334,8.3812855 5.0557621,8.6741016 4.9268909,8.8582034 4.7724641,9.0252183 4.6592317,9.2193309 4.5400358,9.4236668 4.464201,9.650428 4.361834,9.8636927 4.1363035,10.333548 3.9869816,10.561084 3.8166047,11.053284 c -0.078692,0.227331 -0.12465,0.464903 -0.1982652,0.693928 -0.075161,0.233836 -0.1825143,0.457153 -0.2478314,0.693928 -0.067211,0.243639 -0.099133,0.495663 -0.1486989,0.743494 -0.5900854,2.950427 -0.5191186,5.969198 0.2973977,8.872367 0.2165325,0.769893 0.505291,1.628356 0.8921933,2.329616 0.1261979,0.228734 0.2992003,0.428338 0.4460967,0.644362 0.5738034,0.843828 1.1779975,1.657906 1.7843866,2.478315 0.1335745,0.180718 0.2643536,0.363486 0.3965304,0.545229 0.1156547,0.198265 0.2142904,0.407491 0.346964,0.594795 0.1491767,0.210603 0.3383068,0.390233 0.495663,0.594796 0.4945162,0.642871 0.9247413,1.342726 1.4869888,1.933086 0.153298,0.160962 0.3384858,0.288919 0.495663,0.446096 0.1571773,0.157177 0.2889193,0.338486 0.4460963,0.495663 0.281362,0.281361 0.610832,0.5117 0.892194,0.793061 0.339482,0.339482 0.426129,0.536851 0.79306,0.842627 1.278506,1.065421 -0.301269,-0.40548 0.991326,0.743494 1.660999,1.476444 -0.688037,-0.517367 0.743495,0.693928 0.197017,0.166707 0.390232,0.338307 0.594795,0.495663 0.112655,0.08666 0.242194,0.151792 0.346964,0.247832 0.09512,0.0872 0.160635,0.202274 0.247832,0.297398 0.142099,0.155017 0.319921,0.277863 0.446096,0.446096 0.04957,0.08261 0.09913,0.165221 0.148699,0.247832 0.04957,0.03304 0.110563,0.05337 0.148699,0.09913 0.108899,0.130679 0.145768,0.310013 0.247832,0.446097 0.04206,0.05608 0.107955,0.09166 0.148699,0.148699 0.08924,0.124943 0.196036,0.420199 0.346964,0.495663 0.03292,0.01646 0.755857,-0.564679 0.79306,-0.594796 0.218687,-0.177032 0.422643,-0.372011 0.644362,-0.545229 0.867973,-0.678104 1.765522,-1.282748 2.577448,-2.032218 0.33491,-0.309148 0.669039,-0.619473 0.991325,-0.94176 0.755969,-0.755968 0.06616,-0.180301 0.693929,-0.693928 0.475484,-0.389032 0.03031,0.02311 0.545229,-0.594795 0.337311,-0.404774 0.697992,-0.789541 1.040892,-1.189591 0.534661,-0.623772 1.064442,-1.290743 1.685254,-1.833953 0.08966,-0.07846 0.201043,-0.128189 0.297398,-0.198266 0.18991,-0.138116 0.354146,-0.309608 0.545229,-0.446096 0.126836,-0.0906 0.277304,-0.147431 0.39653,-0.247832 0.320597,-0.269976 0.805634,-0.842816 1.090459,-1.140024 1.162922,-1.213484 0.04323,0.04044 1.140025,-1.239158 0.584801,-0.682268 1.13935,-1.142525 1.486988,-1.982652 0.459301,-1.109975 0.412595,-2.4836 0.594796,-3.667905 0.22382,-1.454832 0.693693,-2.8566 0.892193,-4.312268 0.08272,-0.606649 0.04957,-1.223069 0.04957,-1.833953 0,-1.075147 0.01969,-2.148309 -0.04957,-3.221809 C 31.747312,10.249377 31.538268,9.1197952 31.375465,7.9801735 31.268473,7.2312328 31.265531,6.5211484 30.929368,5.8488228 30.823824,5.6377344 30.951129,5.7502952 30.780669,5.551425 30.423207,5.1343859 29.875064,4.9357399 29.392813,4.708798 29.186373,4.6116498 28.761744,4.3790756 28.550186,4.3122677 28.389514,4.2615291 28.21591,4.2615512 28.054523,4.2131351 27.936848,4.1778326 27.026171,3.7903285 26.964064,3.7670384 26.768381,3.6936572 26.566761,3.637136 26.369269,3.5687732 24.516258,2.9273465 26.621725,3.6539572 25.179678,3.1226766 24.885522,3.0143032 24.578548,2.9417041 24.287485,2.8252788 24.184578,2.7841162 24.095233,2.7116286 23.990087,2.6765799 23.894744,2.644799 23.788745,2.6565693 23.692689,2.6270136 23.39181,2.5344355 23.10592,2.3633471 22.800496,2.2800496 22.373927,2.1637126 22.003564,2.0817844 21.561338,2.0817844 c -0.57694,0 0.289942,0.010865 -0.495663,-0.049566 -0.197681,-0.015206 -0.397743,0.021895 -0.594795,0 -0.155401,-0.017267 -0.653074,-0.1599855 -0.793061,0 -0.08772,0.1002473 -0.09054,0.2686164 -0.198265,0.3469641 -0.0598,0.043487 -0.39653,-0.028738 -0.39653,0.099133"
     id="path6" />
  <ellipse
     style="fill:#666666"
     id="path7"
     cx="18.537794"
     cy="14.423792"
     rx="9.1201982"
     ry="6.7410159" />
</svg>
