<?xml version="1.0" encoding="UTF-8" standalone="no"?>
<svg
   width="40"
   height="40"
   viewBox="0 0 40 40"
   fill="none"
   version="1.1"
   id="svg21"
   sodipodi:docname="sticker.svg"
   inkscape:version="1.3.2 (091e20ef0f, 2023-11-25)"
   xmlns:inkscape="http://www.inkscape.org/namespaces/inkscape"
   xmlns:sodipodi="http://sodipodi.sourceforge.net/DTD/sodipodi-0.dtd"
   xmlns="http://www.w3.org/2000/svg"
   xmlns:svg="http://www.w3.org/2000/svg">
  <sodipodi:namedview
     id="namedview21"
     pagecolor="#505050"
     bordercolor="#eeeeee"
     borderopacity="1"
     inkscape:showpageshadow="0"
     inkscape:pageopacity="0"
     inkscape:pagecheckerboard="0"
     inkscape:deskcolor="#505050"
     inkscape:zoom="20.175"
     inkscape:cx="20"
     inkscape:cy="20"
     inkscape:window-width="1920"
     inkscape:window-height="1012"
     inkscape:window-x="0"
     inkscape:window-y="40"
     inkscape:window-maximized="1"
     inkscape:current-layer="svg21" />
  <defs
     id="defs21">
    <filter
       id="filter0_dd_1163_6856"
       x="1.7665"
       y="1.43301"
       width="36.4665"
       height="42.5666"
       filterUnits="userSpaceOnUse"
       color-interpolation-filters="sRGB">
      <feFlood
         flood-opacity="0"
         result="BackgroundImageFix"
         id="feFlood4" />
      <feColorMatrix
         in="SourceAlpha"
         type="matrix"
         values="0 0 0 0 0 0 0 0 0 0 0 0 0 0 0 0 0 0 127 0"
         result="hardAlpha"
         id="feColorMatrix4" />
      <feOffset
         dy="1"
         id="feOffset4" />
      <feGaussianBlur
         stdDeviation="1.05"
         id="feGaussianBlur4" />
      <feComposite
         in2="hardAlpha"
         operator="out"
         id="feComposite4" />
      <feColorMatrix
         type="matrix"
         values="0 0 0 0 0 0 0 0 0 0 0 0 0 0 0 0 0 0 0.25 0"
         id="feColorMatrix5" />
      <feBlend
         mode="normal"
         in2="BackgroundImageFix"
         result="effect1_dropShadow_1163_6856"
         id="feBlend5" />
      <feColorMatrix
         in="SourceAlpha"
         type="matrix"
         values="0 0 0 0 0 0 0 0 0 0 0 0 0 0 0 0 0 0 127 0"
         result="hardAlpha"
         id="feColorMatrix6" />
      <feOffset
         dy="3"
         id="feOffset6" />
      <feGaussianBlur
         stdDeviation="2.45"
         id="feGaussianBlur6" />
      <feComposite
         in2="hardAlpha"
         operator="out"
         id="feComposite6" />
      <feColorMatrix
         type="matrix"
         values="0 0 0 0 0 0 0 0 0 0 0 0 0 0 0 0 0 0 0.1 0"
         id="feColorMatrix7" />
      <feBlend
         mode="normal"
         in2="effect1_dropShadow_1163_6856"
         result="effect2_dropShadow_1163_6856"
         id="feBlend7" />
      <feBlend
         mode="normal"
         in="SourceGraphic"
         in2="effect2_dropShadow_1163_6856"
         result="shape"
         id="feBlend8" />
    </filter>
    <filter
       id="filter1_dd_1163_6856"
       x="7.5"
       y="5.5"
       width="24.5762"
       height="24.5801"
       filterUnits="userSpaceOnUse"
       color-interpolation-filters="sRGB">
      <feFlood
         flood-opacity="0"
         result="BackgroundImageFix"
         id="feFlood8" />
      <feColorMatrix
         in="SourceAlpha"
         type="matrix"
         values="0 0 0 0 0 0 0 0 0 0 0 0 0 0 0 0 0 0 127 0"
         result="hardAlpha"
         id="feColorMatrix8" />
      <feOffset
         dy="1"
         id="feOffset8" />
      <feGaussianBlur
         stdDeviation="0.85"
         id="feGaussianBlur8" />
      <feComposite
         in2="hardAlpha"
         operator="out"
         id="feComposite8" />
      <feColorMatrix
         type="matrix"
         values="0 0 0 0 0 0 0 0 0 0 0 0 0 0 0 0 0 0 0.1 0"
         id="feColorMatrix9" />
      <feBlend
         mode="normal"
         in2="BackgroundImageFix"
         result="effect1_dropShadow_1163_6856"
         id="feBlend9" />
      <feColorMatrix
         in="SourceAlpha"
         type="matrix"
         values="0 0 0 0 0 0 0 0 0 0 0 0 0 0 0 0 0 0 127 0"
         result="hardAlpha"
         id="feColorMatrix10" />
      <feOffset
         dy="1"
         id="feOffset10" />
      <feGaussianBlur
         stdDeviation="2.25"
         id="feGaussianBlur10" />
      <feComposite
         in2="hardAlpha"
         operator="out"
         id="feComposite10" />
      <feColorMatrix
         type="matrix"
         values="0 0 0 0 0 0 0 0 0 0 0 0 0 0 0 0 0 0 0.15 0"
         id="feColorMatrix11" />
      <feBlend
         mode="normal"
         in2="effect1_dropShadow_1163_6856"
         result="effect2_dropShadow_1163_6856"
         id="feBlend11" />
      <feBlend
         mode="normal"
         in="SourceGraphic"
         in2="effect2_dropShadow_1163_6856"
         result="shape"
         id="feBlend12" />
    </filter>
    <linearGradient
       id="paint0_linear_1163_6856"
       x1="19.7881"
       y1="24.5797"
       x2="19.7881"
       y2="9"
       gradientUnits="userSpaceOnUse">
      <stop
         stop-color="#305DB6"
         id="stop12" />
      <stop
         offset="1"
         stop-color="#3972E2"
         id="stop13" />
    </linearGradient>
    <linearGradient
       id="paint1_linear_1163_6856"
       x1="22"
       y1="12.5"
       x2="17.5"
       y2="24.5"
       gradientUnits="userSpaceOnUse">
      <stop
         stop-color="#DADADA"
         id="stop14" />
      <stop
         offset="0.094639"
         stop-color="#DCDCDC"
         id="stop15" />
      <stop
         offset="0.19477"
         stop-color="#F9F9F9"
         id="stop16" />
      <stop
         offset="0.452282"
         stop-color="#D8D8D8"
         id="stop17" />
      <stop
         offset="0.534564"
         stop-color="#EFEEEE"
         id="stop18" />
      <stop
         offset="0.642104"
         stop-color="#CCCCCC"
         id="stop19" />
      <stop
         offset="0.766595"
         stop-color="#C2C2C2"
         id="stop20" />
      <stop
         offset="1"
         stop-color="#737373"
         id="stop21" />
    </linearGradient>
    <clipPath
       id="clip0_1163_6856">
      <rect
         width="40"
         height="40"
         fill="white"
         id="rect21" />
    </clipPath>
  </defs>
  <path
     style="fill:#b3b3b3"
     d="m 18.339529,1.9826518 c -0.969817,0.057066 -1.897911,0.4876689 -2.825279,0.7434944 -0.178071,0.049123 -0.36553,0.056347 -0.545229,0.099133 -0.167805,0.039954 -0.328991,0.1042532 -0.495663,0.1486989 -0.0814,0.021707 -0.16961,0.018278 -0.247831,0.049566 -0.08945,0.03578 -0.156436,0.1182336 -0.247832,0.1486989 -0.110833,0.036944 -0.233623,0.021231 -0.346964,0.049566 -0.152062,0.038016 -0.295072,0.1067477 -0.446097,0.1486989 -0.146769,0.040769 -0.302454,0.048435 -0.446096,0.099133 -0.318331,0.1123522 -1.082671,0.5492854 -1.387856,0.7434945 -0.08925,0.056798 -0.158578,0.1414675 -0.247832,0.1982651 -0.09351,0.059504 -0.207763,0.08351 -0.297398,0.1486989 -0.09448,0.068715 -0.15523,0.1765997 -0.247831,0.2478315 C 10.434075,4.9029657 10.287926,4.965165 10.16109,5.0557621 9.8825186,5.254742 9.5609971,5.5071566 9.3184634,5.7496902 9.260049,5.8081046 9.2349733,5.8972375 9.1697646,5.9479554 9.0822778,6.0160006 8.9547488,6.0225105 8.8723668,6.0966543 8.6726552,6.2763947 8.3405513,6.9124538 8.228005,7.1375465 7.5821044,8.4293476 7.6875885,9.5571487 7.4349442,10.904585 c -0.025108,0.133911 -0.083214,0.261219 -0.099133,0.39653 -0.017374,0.147681 0.00825,0.297627 0,0.446097 -0.016522,0.297398 -0.032076,0.594851 -0.049566,0.892193 -0.018044,0.306749 -0.105867,0.59237 -0.1486989,0.892194 -0.08363,0.585407 0.064904,1.202497 0.099133,1.784386 0.02637,0.448291 0.035221,0.890908 0.099133,1.33829 0.1080029,0.75602 0.3109301,1.491552 0.495663,2.230483 0.6817338,2.726936 -0.3917984,-1.540044 0.2478315,1.33829 0.081252,0.365635 0.2409669,0.730069 0.346964,1.090459 0.038444,0.130708 0.050224,0.269367 0.099133,0.39653 0.034584,0.08992 0.1157755,0.157292 0.1486989,0.247832 0.034345,0.09445 0.023671,0.200291 0.049566,0.297397 0.4061967,1.218591 -0.069237,-0.311567 0.1982652,0.892194 0.065711,0.2957 0.3203136,1.120567 0.4460966,1.387856 0.066369,0.141033 0.1721348,0.260276 0.2478315,0.39653 0.2585893,0.465461 0.479244,0.95334 0.793061,1.387857 0.22059,0.305433 0.471125,0.58837 0.693928,0.892193 0.286339,0.390463 0.549236,0.805926 0.842627,1.189591 0.42646,0.557679 0.916605,1.073441 1.33829,1.635688 0.306292,0.408389 0.615098,0.860485 0.892193,1.288723 0.277541,0.428927 0.579579,0.85031 0.842627,1.288724 0.07603,0.126719 0.118353,0.272223 0.198266,0.39653 0.06978,0.108548 0.171932,0.193037 0.247831,0.297398 0.49276,0.677545 -0.129112,-0.119318 0.247831,0.446097 0.1808,0.271199 0.214546,0.204341 0.346965,0.495663 0.122678,0.269893 0.17628,0.570113 0.297397,0.842627 0.227353,0.511542 0.566739,0.954618 0.842627,1.437422 0.330177,0.57781 0.04663,0.224193 0.446097,0.743495 0.300243,0.390316 0.550583,0.761341 0.693928,1.239157 0.02944,0.09814 0.0028,0.296462 0.148699,0.247832 0.488445,-0.162815 -0.366566,0.09337 0.198265,-0.148699 0.07744,-0.03319 0.167908,-0.02293 0.247832,-0.04957 0.252519,-0.08417 0.501853,-0.237127 0.743494,-0.346964 0.203148,-0.09234 0.3521,-0.119078 0.545229,-0.247831 0.10737,-0.07158 0.193338,-0.171521 0.297398,-0.247832 0.364738,-0.267474 0.505435,-0.302562 0.842627,-0.594795 0.123601,-0.107121 0.22432,-0.238749 0.346964,-0.346964 0.440989,-0.389108 0.936409,-0.714253 1.387856,-1.090459 0.15284,-0.127366 0.289943,-0.27325 0.446097,-0.39653 2.01061,-1.587324 -0.909146,0.845923 0.892193,-0.743494 0.141256,-0.124637 0.308666,-0.218123 0.446097,-0.346965 0.348116,-0.326359 0.625898,-0.727668 0.991326,-1.040892 0.107912,-0.0925 0.241321,-0.152752 0.346964,-0.247831 0.140022,-0.12602 0.220944,-0.306074 0.346964,-0.446097 0.255451,-0.283835 0.23569,-0.191742 0.446097,-0.495663 0.08872,-0.128154 0.147149,-0.277542 0.247831,-0.39653 0.453637,-0.536117 0.145955,0.0367 0.545229,-0.495663 0.07992,-0.106564 0.118342,-0.2404 0.198266,-0.346964 0.0701,-0.09346 0.169677,-0.160993 0.247831,-0.247832 0.536445,-0.596049 -0.198274,0.156971 0.446097,-0.594795 0.375746,-0.438371 0.337768,-0.241796 0.644362,-0.743495 0.09632,-0.15762 0.156183,-0.335278 0.247831,-0.495663 0.449576,-0.786757 0.938817,-1.56527 1.239157,-2.428748 0.06189,-0.177925 0.08913,-0.366515 0.148699,-0.545229 0.155365,-0.466093 0.35396,-0.915512 0.495663,-1.387856 0.257371,-0.857902 0.47627,-1.738067 0.594796,-2.627014 0.125214,-0.457219 -0.0035,-0.927994 0.04957,-1.387856 0.04828,-0.418457 0.19335,-0.821463 0.247832,-1.239158 0.09581,-0.734532 0.01883,-0.371589 0.04957,-1.140025 0.01644,-0.41106 0.08269,-0.828097 0.09913,-1.239157 0.0086,-0.214616 -0.01647,-0.430207 0,-0.644362 0.01667,-0.216674 0.08247,-0.427687 0.09913,-0.644362 0.03295,-0.428309 -0.01651,-0.859466 0,-1.288723 0.01589,-0.413078 0.03161,-0.826165 0.04957,-1.239158 0.02385,-0.548659 0.08149,-0.480607 0.04957,-0.991326 -0.03314,-0.530215 -0.06405,-0.182089 -0.09913,-0.743494 -0.03646,-0.58314 -0.07783,-1.1680877 -0.247845,-1.7348173 C 32.320032,9.2121686 32.22478,9.0746238 32.168525,8.9219331 32.108893,8.7600729 32.082347,8.587037 32.019827,8.4262701 31.815838,7.9017278 31.846342,8.166042 31.623296,7.6827757 31.393053,7.1839157 31.225433,6.6392181 30.978934,6.1462206 30.892766,5.9738831 30.77511,5.8189895 30.681537,5.6505576 30.538002,5.3921949 30.429906,5.1150965 30.285006,4.8574969 29.871945,4.1231656 29.393115,3.4699428 28.798017,2.8748451 28.682363,2.7591904 28.587144,2.618608 28.451053,2.527881 28.284463,2.4168208 28.145914,2.4028941 27.95539,2.3296159 27.720507,2.2392762 27.500205,2.1117991 27.261462,2.0322181 26.872051,1.9024144 26.464847,1.8080589 26.071871,1.685254 25.822525,1.6073335 25.580409,1.5061586 25.328377,1.4374226 24.920887,1.326289 25.236545,1.4516394 24.783147,1.33829 24.461328,1.2578351 24.227741,1.1895911 23.890954,1.1895911 c -1.030852,0 -2.060654,-0.035379 -3.07311,0.1982652 -0.197137,0.02035 -0.357617,0.1513621 -0.545229,0.1982651 -0.226682,0.05667 -0.468504,0.037653 -0.693929,0.099133 -0.07128,0.019441 -0.127492,0.077901 -0.198265,0.099133 -0.09626,0.028879 -0.204086,0.012242 -0.297397,0.049566 -0.0767,0.030681 -0.124377,0.1117544 -0.198266,0.1486989 -0.09346,0.046732 -0.200941,0.058942 -0.297397,0.099133 -0.219656,0.091523 -0.42357,0.209081 -0.644362,0.2973978 -0.106882,0.042753 -0.200798,0.1660652 -0.297398,0.1982651 -0.04702,0.015674 -0.11365,0.035049 -0.148699,0 -0.03126,-0.031258 0.183072,-0.2154514 0.247832,-0.2478314 0.02955,-0.014778 0.06958,0.014778 0.09913,0 0.116707,-0.058353 0.177037,-0.2492534 0.297398,-0.2973978 0.06325,-0.0253 0.132177,-0.033044 0.198265,-0.049566 z"
     id="path21" />
  <ellipse
     style="fill:#0000ff"
     id="path22"
     cx="19.702602"
     cy="14.745973"
     rx="7.6579924"
     ry="6.567534" />
</svg>
