<?xml version="1.0" encoding="UTF-8" standalone="no"?>
<svg
   width="20"
   height="20"
   viewBox="0 0 20 20"
   fill="none"
   version="1.1"
   id="svg1"
   sodipodi:docname="stylus.svg"
   inkscape:version="1.3.2 (091e20ef0f, 2023-11-25)"
   xmlns:inkscape="http://www.inkscape.org/namespaces/inkscape"
   xmlns:sodipodi="http://sodipodi.sourceforge.net/DTD/sodipodi-0.dtd"
   xmlns="http://www.w3.org/2000/svg"
   xmlns:svg="http://www.w3.org/2000/svg">
  <defs
     id="defs1" />
  <sodipodi:namedview
     id="namedview1"
     pagecolor="#505050"
     bordercolor="#eeeeee"
     borderopacity="1"
     inkscape:showpageshadow="0"
     inkscape:pageopacity="0"
     inkscape:pagecheckerboard="0"
     inkscape:deskcolor="#505050"
     inkscape:zoom="40.35"
     inkscape:cx="10"
     inkscape:cy="10"
     inkscape:window-width="1920"
     inkscape:window-height="1012"
     inkscape:window-x="0"
     inkscape:window-y="40"
     inkscape:window-maximized="1"
     inkscape:current-layer="svg1" />
  <mask
     id="mask0_1457_4935"
     style="mask-type:alpha"
     maskUnits="userSpaceOnUse"
     x="0"
     y="0"
     width="20"
     height="20">
    <rect
       width="20"
       height="20"
       fill="#D9D9D9"
       id="rect1" />
  </mask>
  <path
     style="fill:#000000"
     d="m 13.457249,2.1313507 c 0.342041,0.1140136 0.431823,0.1080994 0.693928,0.2973978 0.261737,0.1890322 0.126789,0.1573385 0.396531,0.3221809 0.07881,0.048162 0.169171,0.075509 0.247831,0.1239157 0.02985,0.018369 0.04564,0.05425 0.07435,0.074349 0.139077,0.097354 0.298841,0.1501414 0.421314,0.2726147 0.04562,0.045623 0.08001,0.1014184 0.123916,0.1486989 0.353789,0.3810035 0.05843,0.057625 0.322181,0.2973977 0.284557,0.2586884 0.571479,0.5544681 0.892193,0.7682776 0.04611,0.03074 0.101179,0.045838 0.148699,0.074349 0.06094,0.036562 0.11322,0.086252 0.173482,0.1239158 0.19654,0.1228373 0.409412,0.2327094 0.594795,0.3717472 0.07025,0.05269 0.129214,0.1192273 0.198266,0.173482 0.08676,0.068168 0.291714,0.1868994 0.346964,0.2973978 0.01847,0.036944 0,0.082611 0,0.1239157 0,0.049566 0.01304,0.1008791 0,0.1486989 -0.01268,0.046473 -0.05008,0.082308 -0.07435,0.1239157 -0.144651,0.2479741 -0.310323,0.450107 -0.495663,0.669145 -0.141362,0.1670646 -0.239538,0.3551851 -0.371747,0.5204461 -0.07672,0.095898 -0.160992,0.1857753 -0.247831,0.2726146 -0.192979,0.1929788 -0.06062,-0.00161 -0.247832,0.2230484 -0.325265,0.3903185 0.10862,-0.059647 -0.297398,0.3717472 -0.07206,0.076567 -0.153481,0.1442059 -0.223048,0.2230483 -0.148075,0.1678182 -0.260296,0.3681249 -0.39653,0.5452293 -0.143341,0.1863426 -0.304906,0.3792546 -0.47088,0.5452292 -0.395257,0.395257 0.0355,-0.090093 -0.322181,0.2973978 -0.149703,0.1621784 -0.195359,0.2412824 -0.346964,0.4213135 -0.323598,0.3842725 -0.08894,0.067804 -0.47088,0.5452295 -0.154819,0.193523 -0.291278,0.401271 -0.446097,0.594795 -0.220247,0.27531 -0.45736,0.535465 -0.669145,0.817844 -0.07148,0.09531 -0.125118,0.203352 -0.198265,0.297398 -0.102873,0.132265 -0.238133,0.244777 -0.346964,0.371747 -0.05376,0.06272 -0.09709,0.133757 -0.148699,0.198265 -0.0021,0.0026 -0.25974,0.30126 -0.272614,0.322181 -0.03297,0.05358 -0.04314,0.118857 -0.07435,0.173482 -0.198603,0.347556 -0.04681,0.02046 -0.223048,0.297398 -0.240252,0.377539 0.112176,-0.07663 -0.198265,0.272614 -0.19295,0.217068 -0.380137,0.586599 -0.644362,0.718712 -0.04673,0.02337 -0.100955,0.02835 -0.148699,0.04957 -0.09149,0.04066 -0.166606,0.08853 -0.272615,0.09913 C 10.15592,14.75393 9.8242666,14.7091 9.5167296,14.597274 9.4158018,14.560574 9.3219764,14.504944 9.2193319,14.473358 9.0376873,14.417468 9.0997564,14.496658 8.9467172,14.374228 8.7307623,14.201462 8.6083467,13.974858 8.4510533,13.754647 8.2144451,13.423395 7.9463822,13.076494 7.6579926,12.788104 c -0.095092,-0.09509 -0.202306,-0.177523 -0.2973978,-0.272615 -0.053856,-0.05386 -0.094843,-0.119626 -0.1486989,-0.173482 -0.11053,-0.11053 -0.3189806,-0.233972 -0.4460966,-0.346964 -0.034928,-0.03105 -0.06025,-0.07321 -0.099133,-0.09913 -0.037016,-0.02468 -0.088326,-0.02287 -0.1239158,-0.04957 -0.033044,-0.02478 -0.045142,-0.06992 -0.074349,-0.09913 -0.021062,-0.02106 -0.051467,-0.0305 -0.074349,-0.04957 C 6.2549696,11.58174 6.1390897,11.437361 6.0223053,11.301112 5.9666813,11.236222 5.8770487,11.187523 5.8488233,11.102847 5.8128063,10.994795 5.7750213,10.844199 5.7992573,10.7311 c 0.014789,-0.06902 0.050858,-0.131707 0.074349,-0.198265 0.063547,-0.180048 0.1206613,-0.370621 0.1982652,-0.5452296 0.012097,-0.027218 0.033044,-0.049566 0.049566,-0.074349 0.016522,-0.033044 0.035013,-0.065175 0.049566,-0.099133 0.0407,-0.094967 0.070873,-0.2089923 0.1239158,-0.2973978 0.027215,-0.045358 0.069791,-0.079903 0.099133,-0.1239157 0.020493,-0.03074 0.025523,-0.071082 0.049566,-0.099133 C 6.4700874,9.2627998 6.6819117,9.1280022 6.6914498,9.1201983 7.0050289,8.8636336 7.2178057,8.5049408 7.55886,8.2775713 7.6296281,8.2303925 7.7075589,8.1949608 7.7819083,8.1536555 7.8645188,8.0875671 7.9423307,8.0149875 8.0297398,7.9553903 8.1245627,7.8907383 8.2323146,7.8465603 8.3271375,7.7819083 8.5796176,7.6097628 8.8056424,7.3987231 9.0458488,7.2118959 9.1163829,7.1570361 9.1999199,7.1200019 9.2688971,7.063197 9.4041728,6.9517936 9.5167286,6.8153656 9.6406444,6.6914498 9.8334369,6.4986573 10.038109,6.3075457 10.210657,6.0966543 c 0.03772,-0.046106 0.06192,-0.1021816 0.09913,-0.1486989 0.131467,-0.1643329 0.328896,-0.2651312 0.47088,-0.4213135 0.254916,-0.2804078 0.500045,-0.574394 0.768278,-0.842627 0.07034,-0.07034 0.154745,-0.1259447 0.223048,-0.1982652 0.195795,-0.2073124 0.199995,-0.2748388 0.371747,-0.495663 0.05391,-0.069318 0.120138,-0.1285077 0.173482,-0.1982651 0.193444,-0.2529651 0.09301,-0.151904 0.223049,-0.3469641 0.121103,-0.1816556 0.26434,-0.3324833 0.371747,-0.5204461 0.03121,-0.054625 0.04198,-0.1195335 0.07435,-0.173482 0.01202,-0.020036 0.03555,-0.030874 0.04957,-0.049566 0.03896,-0.05195 0.063,-0.1192867 0.09913,-0.1734821 0.01952,-0.029287 0.05947,-0.03469 0.07435,-0.049566 0.01652,-0.016522 -0.01652,-0.08261 0,-0.099133 0.02612,-0.026124 0.07028,-0.026487 0.09913,-0.049566 0.01442,-0.01154 0.01454,-0.034196 0.02478,-0.049566 0.03579,-0.053685 0.08361,-0.098317 0.123916,-0.1486989 z"
     id="path1" />
  <path
     style="fill:#000000"
     d="m 4.7583643,12.490706 c 0.3637986,0.334795 0.6850381,0.72993 1.0904585,1.016109 0.1830468,0.12921 0.3915525,0.213119 0.5700124,0.346964 0.1312868,0.09847 0.2571552,0.210289 0.3965304,0.297398 0.066088,0.0413 0.1285583,0.08906 0.1982651,0.123916 0.046732,0.02337 0.1052264,0.02059 0.1486989,0.04957 0.082769,0.05518 0.1499529,0.130793 0.2230483,0.198265 0.077262,0.07132 0.1531932,0.144462 0.2230484,0.223049 0.027442,0.03087 0.043648,0.0715 0.074349,0.09913 0.052822,0.04754 0.1192326,0.07801 0.173482,0.123916 0.1632339,0.0097 0.1234582,0.173025 0.1982652,0.247832 0.026124,0.02612 0.070751,0.02591 0.099133,0.04957 0.022882,0.01907 0.028505,0.05329 0.049566,0.07435 0.053856,0.05386 0.1196266,0.09484 0.173482,0.148699 0.066859,0.06686 0.1087609,0.133544 0.1734821,0.198265 0.096722,0.09672 0.01331,-0.0057 0.074349,0.02478 0.044713,0.02236 0.080455,0.0774 0.1239158,0.09913 0.00739,0.0037 0.018942,-0.0058 0.024783,0 0.013062,0.01306 0.016522,0.03304 0.024783,0.04957 0.024783,0.02478 0.047424,0.05191 0.07435,0.07435 0.022882,0.01907 0.049566,0.03304 0.074349,0.04957 0.041305,0.03304 0.08438,0.06399 0.1239158,0.09913 0.041588,0.03697 0.3755312,0.390854 0.3221809,0.47088 -0.073674,0.110511 -0.1579849,0.121377 -0.2726146,0.173482 -0.1163644,0.05289 -0.2209607,0.166764 -0.3469641,0.198265 -0.019276,0.0048 -0.1445684,-0.0036 -0.173482,0 -0.041798,0.0052 -0.081865,0.02231 -0.1239158,0.02478 -0.156689,0.0092 -0.3169679,-0.03078 -0.4708798,0 -0.069212,0.01384 -0.1303984,0.05496 -0.1982652,0.07435 -0.048317,0.0138 -0.099736,0.01348 -0.1486988,0.02478 -0.3598196,0.08304 -0.7082932,0.214201 -1.0408922,0.371748 -0.1591493,0.07539 -0.3261397,0.172191 -0.495663,0.223048 -0.040347,0.0121 -0.083954,0.01146 -0.1239157,0.02478 -0.035049,0.01168 -0.063291,0.04061 -0.099133,0.04957 -0.032058,0.008 -0.066344,-0.0041 -0.099133,0 -0.1495763,0.0187 -0.052829,0.02587 -0.1982652,0.07435 -0.091546,0.03052 -0.2118761,0.02304 -0.2973977,0.07435 -0.020036,0.01202 -0.028667,0.03912 -0.049566,0.04957 -0.057065,0.02853 -0.1682954,0.0261 -0.2230484,0.04957 -0.021477,0.0092 -0.028667,0.03912 -0.049566,0.04957 -0.014778,0.0074 -0.033438,-0.0036 -0.049566,0 -0.1642656,0.0365 -0.3378342,0.06473 -0.4956629,0.123916 -0.083562,0.03134 -0.201396,0.06694 -0.2726146,0.123916 -0.036142,0.02891 -0.1445684,0.154206 -0.1734821,0.173482 -0.073393,0.04893 -0.521979,0.147932 -0.6195786,0.09913 -0.066546,-0.03327 -0.0011,-0.267139 0,-0.272614 0.01336,-0.0668 0.042435,-0.130517 0.049566,-0.198266 0.00951,-0.09037 -0.00413,-0.181836 0,-0.272614 0.00492,-0.108231 0.032366,-0.350476 0.049566,-0.47088 0.010579,-0.07405 0.012485,-0.149259 0.024783,-0.223048 0.016677,-0.100064 0.069396,-0.19338 0.074349,-0.297398 0,-0.958398 -0.014596,0.0105 0.024783,-0.619579 0.010162,-0.162595 -0.020232,-0.333811 0,-0.495663 0.023991,-0.191926 0.092295,-0.380289 0.1239157,-0.570012 0.019919,-0.119513 0.011348,-0.250834 0.024783,-0.371747 0.00964,-0.08675 0.051143,-0.166609 0.074349,-0.247832 0.055287,-0.193504 0.066119,-0.402141 0.1239157,-0.594795 0.023379,-0.07793 0.071328,-0.146585 0.099133,-0.223049 0.053681,-0.147623 0.2037042,-0.699367 0.2726147,-0.768277 0.00584,-0.0058 0.018942,0.0058 0.024783,0 0.016134,-0.01613 0.084645,-0.188925 0.1239157,-0.247832 0.012961,-0.01944 0.039117,-0.02867 0.049566,-0.04957 0.00369,-0.0074 -0.00584,-0.01894 0,-0.02478 0.00584,-0.0058 0.018942,0.0058 0.024783,0 0.00584,-0.0058 -0.00584,-0.01894 0,-0.02478 0.00584,-0.0058 0.018942,0.0058 0.024783,0 0.00584,-0.0058 -0.00584,-0.01894 0,-0.02478 0.00584,-0.0058 0.018942,0.0058 0.024783,0 0.00584,-0.0058 -0.00584,-0.01894 0,-0.02478 0.00584,-0.0058 0.018942,0.0058 0.024783,0 0.014811,-0.01481 -0.026788,-0.04957 0.024783,-0.04957 0.042123,0 0.082611,0.01652 0.1239157,0.02478 z"
     id="path2" />
</svg>
