<?xml version="1.0" encoding="UTF-8" standalone="no"?>
<svg
   width="20"
   height="20"
   viewBox="0 0 20 20"
   fill="none"
   version="1.1"
   id="svg1"
   sodipodi:docname="tick.svg"
   inkscape:version="1.3.2 (091e20ef0f, 2023-11-25)"
   xmlns:inkscape="http://www.inkscape.org/namespaces/inkscape"
   xmlns:sodipodi="http://sodipodi.sourceforge.net/DTD/sodipodi-0.dtd"
   xmlns="http://www.w3.org/2000/svg"
   xmlns:svg="http://www.w3.org/2000/svg">
  <defs
     id="defs1" />
  <sodipodi:namedview
     id="namedview1"
     pagecolor="#505050"
     bordercolor="#eeeeee"
     borderopacity="1"
     inkscape:showpageshadow="0"
     inkscape:pageopacity="0"
     inkscape:pagecheckerboard="0"
     inkscape:deskcolor="#505050"
     inkscape:zoom="40.35"
     inkscape:cx="10"
     inkscape:cy="10"
     inkscape:window-width="1920"
     inkscape:window-height="1012"
     inkscape:window-x="0"
     inkscape:window-y="40"
     inkscape:window-maximized="1"
     inkscape:current-layer="svg1" />
  <path
     style="fill:#000000"
     d="m 2.3048327,7.2614622 c 0.033637,0.2308069 0.1690645,0.4277526 0.2478315,0.6443618 0.04368,0.1201203 0.073834,0.2647971 0.1486989,0.3717473 0.1178358,0.1683368 0.2544948,0.3262984 0.3717472,0.4956629 0.088939,0.1284675 0.1430032,0.2561264 0.2230483,0.3717472 0.036726,0.053049 0.08719,0.09565 0.1239157,0.1486989 0.037911,0.05476 0.058524,0.1206911 0.099133,0.173482 0.042739,0.055561 0.10279,0.095727 0.1486989,0.1486989 0.1959041,0.2260432 0.1417849,0.2022612 0.3221809,0.4213138 0.063238,0.07679 0.1361229,0.14537 0.1982652,0.223048 0.2653449,0.331681 0.4995148,0.687621 0.7682776,1.016109 0.1328964,0.162429 0.2562304,0.339774 0.3965304,0.495663 0.039077,0.04342 0.090417,0.07606 0.1239157,0.123916 0.025512,0.03645 0.024055,0.08747 0.049566,0.123916 0.1015522,0.101552 0.1253331,0.11365 0.1982652,0.223048 0.024365,0.03655 0.1381849,0.237317 0.1486988,0.247831 0.00584,0.0058 0.016522,0 0.024783,0 0.00826,0.0083 0.018303,0.01506 0.024783,0.02478 0.115066,0.172599 0.2104547,0.361186 0.3469641,0.520447 0.043344,0.05057 0.1197733,-0.05975 0.173482,-0.09913 0.081317,-0.05963 0.1630969,-0.118815 0.2478315,-0.173482 0.5668483,-0.365709 0.6799005,-0.388589 1.2887237,-0.842627 0.2399607,-0.178954 0.4655615,-0.376481 0.6939281,-0.570012 0.2590858,-0.219565 0.4894912,-0.475207 0.7682776,-0.669145 0.33683,-0.234317 1.59356,-0.8392994 1.933086,-1.0408926 0.05193,-0.030833 0.766607,-0.5346038 0.916976,-0.669145 0.05676,-0.050785 0.09255,-0.1220168 0.148699,-0.1734821 0.04391,-0.040254 0.102593,-0.06141 0.148699,-0.099132 0.04521,-0.03699 0.07904,-0.08652 0.123916,-0.1239158 0.364904,-0.3040868 -0.03474,0.085954 0.39653,-0.2973977 0.286211,-0.2544094 0.54712,-0.5471204 0.817844,-0.8178439 0.200785,-0.2007851 0.418793,-0.3940105 0.619579,-0.5947956 0.05386,-0.053855 0.09484,-0.1196265 0.148698,-0.173482 0.215349,-0.2153482 0.639727,-0.4277037 0.892194,-0.6195787 0.102738,-0.078081 0.193705,-0.1710223 0.297398,-0.2478314 0.239344,-0.1772924 0.502248,-0.3209673 0.743494,-0.495663 0.119129,-0.086266 0.2276,-0.1866729 0.346964,-0.2726146 0.08741,-0.062936 0.18372,-0.1126594 0.272615,-0.1734821 0.140058,-0.095829 0.183837,-0.1538765 0.322181,-0.2230483 0.03768,-0.018838 0.09413,-0.054569 0.123915,-0.024783 0.0058,0.00584 -0.0046,0.01791 0,0.024783 0.02934,0.044013 0.0711,0.07906 0.09913,0.1239158 0.09612,0.153799 0.169378,0.3217611 0.272614,0.4708798 0.04655,0.067239 0.120657,0.1110521 0.173483,0.173482 0.03848,0.045476 0.06141,0.1025933 0.09913,0.1486989 0.03699,0.04521 0.08511,0.080256 0.123916,0.1239157 0.09934,0.1117635 0.153287,0.2368138 0.198265,0.3717472 0.01552,0.046559 0.03968,0.047002 0.02478,0.099133 -0.05127,0.1794359 -0.0613,0.120979 -0.223048,0.2726146 -0.07671,0.071914 -0.142781,0.1551301 -0.223048,0.2230484 -0.341827,0.2892376 -0.714844,0.539598 -1.065676,0.8178438 -0.804942,0.6384025 -1.568463,1.3151346 -2.280049,2.0570013 -0.342538,0.3571141 -0.636922,0.7211163 -0.991326,1.0656753 -0.07737,0.07522 -0.581073,0.514973 -0.718712,0.619579 -0.103993,0.07904 -0.218187,0.144013 -0.32218,0.223048 -0.250626,0.190476 -0.353516,0.320451 -0.619579,0.495663 -0.226001,0.14883 -0.465135,0.276813 -0.693928,0.421314 -0.170517,0.107694 -0.327857,0.235093 -0.495663,0.346964 -0.389732,0.259821 -0.778531,0.51928 -1.1895915,0.743494 -0.074667,0.04073 -0.1451267,0.08983 -0.2230483,0.123916 -0.055099,0.02411 -0.1176422,0.02723 -0.1734821,0.04957 -0.09187,0.03675 -0.1859682,0.126826 -0.2726146,0.173482 -0.2798147,0.15067 -0.5790893,0.265782 -0.842627,0.446097 -0.2206863,0.150996 -0.4223195,0.333903 -0.669145,0.446096 -0.3238622,0.147211 -0.7950928,0.119587 -1.1400248,0.173482 -0.1128332,0.01763 -0.4171142,0.07549 -0.5452292,0.148699 -0.096061,0.05489 -0.3681127,0.356437 -0.4708798,0.322181 -0.035049,-0.01168 -0.063746,-0.03895 -0.099133,-0.04957 -0.048131,-0.01444 -0.1014743,-0.0076 -0.1486989,-0.02478 C 4.9282698,15.13895 4.745212,14.571086 4.5848823,14.275093 4.5302211,14.17418 4.4643479,14.079518 4.4114002,13.977695 4.2621042,13.690587 4.1426554,13.383134 3.9653036,13.110285 3.9139709,13.031312 3.8431543,12.96621 3.7918216,12.887237 3.7354095,12.800449 3.6999684,12.701126 3.6431227,12.614622 3.5096918,12.411575 3.367588,12.214198 3.2218092,12.019827 3.0172732,11.747112 2.7693523,11.502802 2.6022305,11.201983 2.5178847,11.05016 2.45952,10.885084 2.3791822,10.731103 2.2137473,10.414019 2.0368749,10.098849 1.9083024,9.7645601 1.8867129,9.7084274 1.8803255,9.6472107 1.8587361,9.5910781 1.7889143,9.4095415 1.6936727,9.2217312 1.6109046,9.0458488 1.547101,8.9102661 1.4936343,8.8403136 1.4622057,8.6988848 1.4394897,8.5966627 1.4544887,8.4791009 1.4374226,8.3767038 1.4288331,8.3251673 1.4043784,8.2775713 1.3878563,8.228005 c 0,-0.057827 0.00444,-0.1158251 0,-0.1734821 C 1.3863117,8.0344436 1.334338,7.6202823 1.33829,7.6084263 1.3821977,7.4767029 1.3377003,7.5922973 1.3878563,7.55886 1.4072983,7.545899 1.4173863,7.521315 1.4374223,7.509294 1.5444189,7.445096 1.6259413,7.486947 1.73482,7.459728 1.8930639,7.420167 1.6243765,7.434945 1.8835189,7.434945 c 0.04164,0 0.1301852,0.010824 0.173482,0 C 2.1688161,7.406991 2.2206494,7.345646 2.3048327,7.2614622 Z"
     id="path1" />
</svg>
